<svg width="192" height="45" viewBox="0 0 192 45" fill="none" xmlns="http://www.w3.org/2000/svg">
<g filter="url(#filter0_d)">
<path fill-rule="evenodd" clip-rule="evenodd" d="M60.3642 0H9.76873C6.56681 0 3.97477 2.61744 4.00019 5.79395V25.1071C4.00019 28.3091 6.59222 30.9011 9.79414 30.9011H33.7577L44.7104 37L42.22 30.9011H60.3642C63.5661 30.9011 66.1582 28.3091 66.1582 25.1071V5.79395C66.1582 2.59203 63.5661 0 60.3642 0ZM8.70146 4.47239C7.98992 4.52322 7.45626 4.77734 7.10049 5.26017C6.74473 5.71759 6.61767 6.30207 6.6939 6.96278C8.19322 16.4923 9.59088 22.9216 10.8869 26.2506C11.3951 27.4703 11.9796 28.0548 12.6657 28.004C13.7331 27.9278 15.0037 26.4539 16.503 23.5823C17.2907 21.9559 18.5105 19.5164 20.1623 16.2636C21.5346 21.0665 23.4151 24.675 25.7784 27.0892C26.4391 27.7753 27.1252 28.0802 27.7859 28.0294C28.3704 27.9786 28.8278 27.6736 29.1328 27.1146C29.3869 26.6317 29.4885 26.0727 29.4377 25.4374C29.2853 23.1249 29.514 19.8975 30.1493 15.7554C30.81 11.4861 31.6232 8.41127 32.6142 6.5816C32.8175 6.20042 32.8938 5.81923 32.8684 5.36182C32.8175 4.77734 32.5634 4.29451 32.0806 3.91333C31.5978 3.53215 31.0641 3.35427 30.4796 3.40509C29.7427 3.45591 29.1836 3.81168 28.8024 4.52322C27.2269 7.39479 26.1087 12.0452 25.448 18.4999C24.4824 16.0603 23.6692 13.1887 23.0339 9.80893C22.7543 8.30962 22.0682 7.59808 20.9501 7.67432C20.1877 7.72514 19.5524 8.23338 19.0442 9.19904L13.4789 19.7959C12.5641 16.1111 11.7001 11.6132 10.9123 6.30207C10.7344 4.98064 9.99747 4.37074 8.70146 4.47239ZM57.6701 6.30211C59.4743 6.68329 60.8212 7.64895 61.736 9.24991C62.5492 10.6222 62.9558 12.2739 62.9558 14.2561C62.9558 16.8735 62.2951 19.2623 60.9737 21.4477C59.4489 23.9889 57.4668 25.2595 55.0018 25.2595C54.5698 25.2595 54.1124 25.2087 53.6296 25.1071C51.8253 24.7259 50.4785 23.7602 49.5636 22.1593C48.7504 20.7616 48.3438 19.0844 48.3438 17.1277C48.3438 14.5102 49.0046 12.1215 50.326 9.96145C51.8761 7.42024 53.8583 6.14963 56.2978 6.14963C56.7298 6.14963 57.1873 6.20046 57.6701 6.30211ZM56.6028 20.0501C57.543 19.2115 58.1783 17.9663 58.5341 16.2891C58.6357 15.7046 58.712 15.0693 58.712 14.4086C58.712 13.6716 58.5595 12.8838 58.2546 12.0961C57.8734 11.105 57.3651 10.5713 56.7553 10.4443C55.8404 10.2664 54.951 10.7746 54.1124 12.0198C53.4263 12.9855 52.9943 14.002 52.7656 15.0439C52.6385 15.6283 52.5877 16.2637 52.5877 16.899C52.5877 17.6359 52.7401 18.4237 53.0451 19.2114C53.4263 20.2025 53.9345 20.7362 54.5444 20.8632C55.1797 20.9903 55.8658 20.7108 56.6028 20.0501ZM45.8031 9.24991C44.8883 7.64895 43.516 6.68329 41.7372 6.30211C41.2544 6.20046 40.7969 6.14963 40.3649 6.14963C37.9254 6.14963 35.9432 7.42024 34.3931 9.96145C33.0717 12.1215 32.4109 14.5102 32.4109 17.1277C32.4109 19.0844 32.8175 20.7616 33.6307 22.1593C34.5456 23.7602 35.8924 24.7259 37.6967 25.1071C38.1795 25.2087 38.6369 25.2595 39.0689 25.2595C41.5339 25.2595 43.516 23.9889 45.0408 21.4477C46.3622 19.2623 47.0229 16.8735 47.0229 14.2561C47.0229 12.2739 46.6163 10.6222 45.8031 9.24991ZM42.6012 16.2891C42.2454 17.9663 41.6101 19.2115 40.6699 20.0501C39.9329 20.7108 39.2468 20.9903 38.6115 20.8632C38.0016 20.7362 37.4934 20.2025 37.1122 19.2114C36.8072 18.4237 36.6548 17.6359 36.6548 16.899C36.6548 16.2637 36.7056 15.6283 36.8326 15.0439C37.0614 14.002 37.4934 12.9855 38.1795 12.0198C39.0181 10.7746 39.9075 10.2664 40.8223 10.4443C41.4322 10.5713 41.9405 11.105 42.3217 12.0961C42.6266 12.8838 42.7791 13.6716 42.7791 14.4086C42.7791 15.0693 42.7283 15.7046 42.6012 16.2891Z" fill="white"/>
<path d="M72.5876 9.02142C70.885 10.6986 70.0464 12.8332 70.0464 15.4253C70.0464 18.1952 70.885 20.4569 72.5622 22.1595C74.2394 23.8621 76.4248 24.7261 79.1439 24.7261C79.9317 24.7261 80.8211 24.599 81.7868 24.3195V20.2027C80.8974 20.4569 80.135 20.5839 79.4743 20.5839C78.1274 20.5839 77.0601 20.1265 76.2469 19.2371C75.4337 18.3222 75.0272 17.1025 75.0272 15.5523C75.0272 14.1038 75.4338 12.9095 76.2215 11.9946C77.0347 11.0544 78.0258 10.597 79.2456 10.597C80.0333 10.597 80.8719 10.724 81.7868 10.9781V6.86139C80.9482 6.63268 80.0079 6.53103 79.0169 6.53103C76.4248 6.50562 74.2902 7.34422 72.5876 9.02142ZM90.2236 6.50562C87.8857 6.50562 86.056 7.29339 84.7346 8.84353C83.4132 10.3937 82.7778 12.5791 82.7778 15.3744C82.7778 18.3985 83.4386 20.711 84.7346 22.3119C86.0306 23.9129 87.9365 24.7261 90.4269 24.7261C92.841 24.7261 94.6961 23.9129 95.9921 22.3119C97.2882 20.711 97.9489 18.4493 97.9489 15.5523C97.9489 12.6553 97.2881 10.4191 95.9667 8.84353C94.6199 7.29339 92.714 6.50562 90.2236 6.50562ZM92.2311 19.7199C91.7737 20.4314 91.0876 20.7872 90.2236 20.7872C89.4104 20.7872 88.8005 20.4314 88.3685 19.7199C87.9365 19.0084 87.7332 17.5853 87.7332 15.4253C87.7332 12.0963 88.5718 10.4445 90.2744 10.4445C92.0533 10.4445 92.9681 12.1217 92.9681 15.5015C92.9427 17.5853 92.6886 19.0084 92.2311 19.7199ZM110.502 6.98845L109.588 10.8765C109.359 11.8676 109.13 12.8841 108.927 13.926L108.419 16.6196C107.936 13.926 107.275 10.724 106.436 6.98845H100.541L98.33 24.2941H102.752L103.946 12.3758L106.97 24.2941H110.121L113.018 12.4012L114.263 24.2941H118.888L116.551 6.98845H110.502ZM131.671 6.98845L130.756 10.8765C130.527 11.8676 130.298 12.8841 130.095 13.926L129.587 16.6196C129.104 13.926 128.443 10.724 127.605 6.98845H121.709L119.498 24.2941H123.92L125.114 12.3758L128.138 24.2941H131.29L134.161 12.4012L135.406 24.2941H140.031L137.693 6.98845H131.671ZM146.054 17.4582H150.196V13.8751H146.054V10.6986H150.831V7.01386H141.378V24.3195H150.857V20.6347H146.054V17.4582ZM164.02 14.7137C164.503 13.926 164.757 13.1128 164.757 12.2742C164.757 10.6478 164.122 9.35177 162.851 8.41152C161.581 7.47127 159.827 6.98845 157.642 6.98845H152.204V24.2941H156.88V16.4163H156.956L160.742 24.2941H165.672L161.937 16.4926C162.826 16.086 163.537 15.5015 164.02 14.7137ZM156.854 14.4342V10.3174C157.972 10.3428 158.76 10.5207 159.243 10.8765C159.726 11.2323 159.954 11.7913 159.954 12.6045C159.954 13.7989 158.912 14.4088 156.854 14.4342ZM167.502 9.02142C165.799 10.6986 164.961 12.8332 164.961 15.4253C164.961 18.1952 165.799 20.4569 167.476 22.1595C169.154 23.8621 171.339 24.7261 174.058 24.7261C174.846 24.7261 175.735 24.599 176.701 24.3195V20.2027C175.812 20.4569 175.049 20.5839 174.388 20.5839C173.042 20.5839 171.974 20.1265 171.161 19.2371C170.348 18.3222 169.941 17.1025 169.941 15.5523C169.941 14.1038 170.348 12.9095 171.136 11.9946C171.949 11.0544 172.94 10.597 174.16 10.597C174.947 10.597 175.786 10.724 176.701 10.9781V6.86139C175.862 6.63268 174.922 6.53103 173.931 6.53103C171.364 6.50562 169.204 7.34422 167.502 9.02142ZM182.673 20.5839V17.4328H186.815V13.8497H182.673V10.6732H187.476V6.98845H178.022V24.2941H187.501V20.6093H182.673V20.5839Z" fill="white"/>
</g>
<defs>
<filter id="filter0_d" x="0" y="0" width="191.501" height="45" filterUnits="userSpaceOnUse" color-interpolation-filters="sRGB">
<feFlood flood-opacity="0" result="BackgroundImageFix"/>
<feColorMatrix in="SourceAlpha" type="matrix" values="0 0 0 0 0 0 0 0 0 0 0 0 0 0 0 0 0 0 127 0"/>
<feOffset dy="4"/>
<feGaussianBlur stdDeviation="2"/>
<feColorMatrix type="matrix" values="0 0 0 0 0 0 0 0 0 0 0 0 0 0 0 0 0 0 0.25 0"/>
<feBlend mode="normal" in2="BackgroundImageFix" result="effect1_dropShadow"/>
<feBlend mode="normal" in="SourceGraphic" in2="effect1_dropShadow" result="shape"/>
</filter>
</defs>
</svg>
