<svg width="251" height="550" viewBox="0 0 251 550" fill="none" xmlns="http://www.w3.org/2000/svg">
<ellipse cx="4.48445" cy="5.08726" rx="4.12556" ry="4.09287" fill="#29AAF3"/>
<ellipse cx="64.9918" cy="5.08726" rx="4.12556" ry="4.09287" fill="#29AAF3"/>
<ellipse cx="125.501" cy="5.08726" rx="4.12556" ry="4.09287" fill="#29AAF3"/>
<ellipse cx="186.008" cy="5.08726" rx="4.12556" ry="4.09287" fill="#29AAF3"/>
<ellipse cx="246.517" cy="5.08726" rx="4.12556" ry="4.09287" fill="#29AAF3"/>
<ellipse cx="4.48396" cy="65.1159" rx="4.12556" ry="4.09287" fill="#29AAF3"/>
<ellipse cx="64.9918" cy="65.1159" rx="4.12556" ry="4.09287" fill="#29AAF3"/>
<ellipse cx="125.501" cy="65.1159" rx="4.12556" ry="4.09287" fill="#29AAF3"/>
<ellipse cx="186.008" cy="65.1159" rx="4.12556" ry="4.09287" fill="#29AAF3"/>
<ellipse cx="246.517" cy="65.1159" rx="4.12556" ry="4.09287" fill="#29AAF3"/>
<ellipse cx="4.48396" cy="125.145" rx="4.12556" ry="4.09287" fill="#29AAF3"/>
<ellipse cx="64.9918" cy="125.145" rx="4.12556" ry="4.09287" fill="#29AAF3"/>
<ellipse cx="125.501" cy="125.145" rx="4.12556" ry="4.09287" fill="#29AAF3"/>
<ellipse cx="186.008" cy="125.145" rx="4.12556" ry="4.09287" fill="#29AAF3"/>
<ellipse cx="246.517" cy="125.145" rx="4.12556" ry="4.09287" fill="#29AAF3"/>
<ellipse cx="4.48396" cy="185.174" rx="4.12556" ry="4.09287" fill="#29AAF3"/>
<ellipse cx="64.9918" cy="185.174" rx="4.12556" ry="4.09287" fill="#29AAF3"/>
<ellipse cx="125.501" cy="185.174" rx="4.12556" ry="4.09287" fill="#29AAF3"/>
<ellipse cx="186.008" cy="185.174" rx="4.12556" ry="4.09287" fill="#29AAF3"/>
<ellipse cx="246.517" cy="185.174" rx="4.12556" ry="4.09287" fill="#29AAF3"/>
<ellipse cx="4.48396" cy="245.202" rx="4.12556" ry="4.09287" fill="#29AAF3"/>
<ellipse cx="64.9918" cy="245.202" rx="4.12556" ry="4.09287" fill="#29AAF3"/>
<ellipse cx="125.501" cy="245.202" rx="4.12556" ry="4.09287" fill="#29AAF3"/>
<ellipse cx="186.008" cy="245.202" rx="4.12556" ry="4.09287" fill="#29AAF3"/>
<ellipse cx="246.517" cy="245.202" rx="4.12556" ry="4.09287" fill="#29AAF3"/>
<ellipse cx="4.48396" cy="305.231" rx="4.12556" ry="4.09287" fill="#29AAF3"/>
<ellipse cx="64.9918" cy="305.231" rx="4.12556" ry="4.09287" fill="#29AAF3"/>
<ellipse cx="125.501" cy="305.231" rx="4.12556" ry="4.09287" fill="#29AAF3"/>
<ellipse cx="186.008" cy="305.231" rx="4.12556" ry="4.09287" fill="#29AAF3"/>
<ellipse cx="246.517" cy="305.231" rx="4.12556" ry="4.09287" fill="#29AAF3"/>
<ellipse cx="4.48396" cy="365.26" rx="4.12556" ry="4.09287" fill="#29AAF3"/>
<ellipse cx="64.9918" cy="365.26" rx="4.12556" ry="4.09287" fill="#29AAF3"/>
<ellipse cx="125.501" cy="365.26" rx="4.12556" ry="4.09287" fill="#29AAF3"/>
<ellipse cx="186.008" cy="365.26" rx="4.12556" ry="4.09287" fill="#29AAF3"/>
<ellipse cx="246.517" cy="365.26" rx="4.12556" ry="4.09287" fill="#29AAF3"/>
<ellipse cx="4.48396" cy="425.289" rx="4.12556" ry="4.09287" fill="#29AAF3"/>
<ellipse cx="64.9918" cy="425.289" rx="4.12556" ry="4.09287" fill="#29AAF3"/>
<ellipse cx="125.501" cy="425.289" rx="4.12556" ry="4.09287" fill="#29AAF3"/>
<ellipse cx="186.008" cy="425.289" rx="4.12556" ry="4.09287" fill="#29AAF3"/>
<ellipse cx="246.517" cy="425.289" rx="4.12556" ry="4.09287" fill="#29AAF3"/>
<ellipse cx="4.48396" cy="485.318" rx="4.12556" ry="4.09287" fill="#29AAF3"/>
<ellipse cx="64.9918" cy="485.318" rx="4.12556" ry="4.09287" fill="#29AAF3"/>
<ellipse cx="125.501" cy="485.318" rx="4.12556" ry="4.09287" fill="#29AAF3"/>
<ellipse cx="186.008" cy="485.318" rx="4.12556" ry="4.09287" fill="#29AAF3"/>
<ellipse cx="246.517" cy="485.318" rx="4.12556" ry="4.09287" fill="#29AAF3"/>
<ellipse cx="4.48396" cy="545.346" rx="4.12556" ry="4.09287" fill="#29AAF3"/>
<ellipse cx="64.9918" cy="545.346" rx="4.12556" ry="4.09287" fill="#29AAF3"/>
<ellipse cx="125.501" cy="545.346" rx="4.12556" ry="4.09287" fill="#29AAF3"/>
<ellipse cx="186.008" cy="545.346" rx="4.12556" ry="4.09287" fill="#29AAF3"/>
<ellipse cx="246.517" cy="545.346" rx="4.12556" ry="4.09287" fill="#29AAF3"/>
</svg>
