<svg width="21" height="20" viewBox="0 0 21 20" fill="none" xmlns="http://www.w3.org/2000/svg">
<path d="M20.1692 5.8964L20.1694 5.9003C20.2366 7.09512 20.2353 8.2823 20.234 9.49368C20.2338 9.66196 20.2336 9.8307 20.2336 10C20.2336 10.1898 20.2339 10.3789 20.2342 10.5673C20.2359 11.7581 20.2376 12.9246 20.1694 14.0988L20.1692 14.1036C20.0947 15.642 19.7514 16.9171 18.7014 17.9671C17.6539 19.0146 16.3762 19.3603 14.838 19.4348L14.8341 19.435C13.6392 19.5022 12.452 19.5009 11.2406 19.4996C11.0724 19.4994 10.9037 19.4993 10.7344 19.4993C10.5654 19.4993 10.397 19.4994 10.229 19.4996C9.01925 19.5009 7.83172 19.5022 6.63462 19.435L6.63078 19.4348C5.09233 19.3603 3.81725 19.017 2.76731 17.9671C1.71977 16.9195 1.37409 15.6418 1.29959 14.1036L1.29937 14.0997C1.23215 12.9048 1.23344 11.7157 1.23475 10.5054C1.23494 10.3374 1.23512 10.1689 1.23512 10C1.23512 9.83105 1.23494 9.6626 1.23475 9.49459C1.23344 8.28485 1.23215 7.09733 1.29938 5.90025L1.29939 5.90025L1.29958 5.8964C1.3741 4.35795 1.71737 3.08287 2.76731 2.03293C3.81485 0.985391 5.09255 0.63971 6.63078 0.565202L6.63078 0.565218L6.63467 0.564999C7.8295 0.497776 9.01667 0.499064 10.2281 0.500378C10.3963 0.500561 10.5651 0.500744 10.7344 0.500744C10.9033 0.500744 11.0718 0.500561 11.2398 0.500378C12.4495 0.499064 13.637 0.497774 14.8341 0.565001L14.8341 0.565016L14.838 0.565202C16.3764 0.639721 17.6515 0.982992 18.7014 2.03293C19.749 3.08047 20.0947 4.35817 20.1692 5.8964ZM14.3747 4.65889C14.3747 5.59791 15.1338 6.35708 16.0728 6.3572L17.2713 4.65889H17.7713C17.7713 4.65868 17.7713 4.65847 17.7713 4.65826C17.771 3.71946 17.0119 2.96058 16.073 2.96058C15.1339 2.96058 14.3747 3.7198 14.3747 4.65889ZM7.89712 10C7.89712 8.4399 9.17177 7.16525 10.7319 7.16525C12.292 7.16525 13.5666 8.4399 13.5666 10C13.5666 11.5601 12.292 12.8348 10.7319 12.8348C9.17177 12.8348 7.89712 11.5601 7.89712 10ZM19.055 18.3206C20.2283 17.1473 20.591 15.7289 20.6686 14.1278L0.800163 5.87221C0.732074 7.08463 0.733407 8.28741 0.734747 9.49578C0.734933 9.66373 0.735119 9.83179 0.735119 10C0.735119 10.1682 0.734933 10.3363 0.734747 10.5043C0.733407 11.7131 0.732073 12.9175 0.800163 14.1278C0.877715 15.7289 1.24296 17.1498 2.41375 18.3206C3.58705 19.4939 5.0055 19.8567 6.60659 19.9342C7.81902 20.0023 9.02181 20.001 10.2302 19.9996C10.3981 19.9994 10.5662 19.9993 10.7344 19.9993C10.9029 19.9993 11.0713 19.9994 11.2395 19.9996C12.4495 20.001 13.652 20.0023 14.8622 19.9342C16.4632 19.8567 17.8842 19.4914 19.055 18.3206ZM5.10091 10C5.10091 13.1156 7.61631 15.631 10.7319 15.631C13.8474 15.631 16.3628 13.1156 16.3628 10C16.3628 6.88444 13.8474 4.36903 10.7319 4.36903C7.61631 4.36903 5.10091 6.88444 5.10091 10Z" fill="#272D4E" stroke="black"/>
</svg>
