<svg width="836" height="525" viewBox="0 0 836 525" fill="none" xmlns="http://www.w3.org/2000/svg">
<rect x="109" y="143" width="618" height="331" rx="20" fill="white"/>
<g filter="url(#filter0_d)">
<rect x="79" y="91" width="678" height="363" rx="20" fill="white"/>
</g>
<g filter="url(#filter1_d)">
<rect x="53" y="35" width="730" height="391" rx="20" fill="white"/>
</g>
<path d="M303.121 220.412C313.018 210.059 320.795 200.412 326.45 191.471C332.106 182.529 334.934 175.235 334.934 169.588C334.934 166.294 333.755 163.235 331.399 160.412C329.514 157.588 326.45 154.529 322.208 151.235C315.61 146.059 310.426 140.647 306.656 135C302.885 129.353 301 121.824 301 112.412C301 97.8235 305.477 86.0588 314.432 77.1176C323.387 67.7059 334.698 63 348.366 63C362.976 63 374.758 67.7059 383.713 77.1176C393.139 86.0588 397.852 97.8235 397.852 112.412C397.852 130.765 390.076 151 374.523 173.118C359.441 194.765 339.175 214.059 313.725 231L303.121 220.412ZM440.269 220.412C450.166 210.059 457.943 200.412 463.598 191.471C469.254 182.529 472.082 175.235 472.082 169.588C472.082 166.294 470.903 163.235 468.547 160.412C466.662 157.588 463.598 154.529 459.356 151.235C452.758 146.059 447.574 140.647 443.804 135C440.033 129.353 438.148 121.824 438.148 112.412C438.148 97.8235 442.625 86.0588 451.58 77.1176C460.535 67.7059 471.846 63 485.514 63C500.124 63 511.906 67.7059 520.861 77.1176C530.287 86.0588 535 97.8235 535 112.412C535 130.765 527.224 151 511.671 173.118C496.589 194.765 476.323 214.059 450.873 231L440.269 220.412Z" fill="#EDF0FD"/>
<path d="M165.18 170V151.07H162.564V165.594L153.112 151.07H149.614V170H152.231V154.567L162.457 170H165.18ZM175.211 168.158C173.075 168.158 171.206 166.556 171.206 163.565C171.206 160.602 173.075 159 175.211 159C177.347 159 179.216 160.602 179.216 163.565C179.216 166.556 177.347 168.158 175.211 168.158ZM175.211 156.757C171.367 156.757 168.643 159.667 168.643 163.565C168.643 167.49 171.367 170.401 175.211 170.401C179.056 170.401 181.78 167.49 181.78 163.565C181.78 159.667 179.056 156.757 175.211 156.757ZM197.166 168.158C195.03 168.158 193.161 166.556 193.161 163.565C193.161 160.602 195.03 159 197.166 159C199.302 159 201.171 160.602 201.171 163.565C201.171 166.556 199.302 168.158 197.166 168.158ZM197.166 156.757C193.321 156.757 190.598 159.667 190.598 163.565C190.598 167.49 193.321 170.401 197.166 170.401C201.011 170.401 203.734 167.49 203.734 163.565C203.734 159.667 201.011 156.757 197.166 156.757ZM210.179 153.099H207.883V155.181C207.883 156.303 207.295 157.157 205.907 157.157H205.213V159.427H207.669V166.476C207.669 168.798 209.058 170.134 211.247 170.134C212.101 170.134 212.742 169.973 212.956 169.893V167.757C212.742 167.811 212.288 167.864 211.968 167.864C210.66 167.864 210.179 167.277 210.179 166.102V159.427H212.956V157.157H210.179V153.099ZM218.816 162.444C218.869 160.548 219.884 159.053 221.806 159.053C224.049 159.053 224.797 160.495 224.797 162.284V170H227.306V161.856C227.306 159 225.784 156.783 222.714 156.783C221.245 156.783 219.75 157.291 218.816 158.652V150.669H216.306V170H218.816V162.444ZM232.927 162.257C233.034 160.602 234.316 158.973 236.425 158.973C238.694 158.973 239.896 160.415 239.949 162.257H232.927ZM240.323 165.594C239.843 167.036 238.801 168.184 236.719 168.184C234.556 168.184 232.901 166.582 232.847 164.286H242.513C242.539 164.126 242.566 163.806 242.566 163.485C242.566 159.48 240.35 156.757 236.398 156.757C233.168 156.757 230.257 159.507 230.257 163.539C230.257 167.891 233.274 170.401 236.719 170.401C239.709 170.401 241.765 168.612 242.486 166.342L240.323 165.594ZM252.899 157.024C252.765 156.997 252.418 156.944 252.071 156.944C250.763 156.944 249.161 157.424 248.226 159.4V157.157H245.77V170H248.28V163.565C248.28 160.735 249.695 159.614 251.804 159.614C252.151 159.614 252.525 159.64 252.899 159.694V157.024ZM263.877 162.257C263.984 160.602 265.266 158.973 267.375 158.973C269.645 158.973 270.846 160.415 270.899 162.257H263.877ZM271.273 165.594C270.793 167.036 269.751 168.184 267.669 168.184C265.506 168.184 263.851 166.582 263.797 164.286H273.463C273.489 164.126 273.516 163.806 273.516 163.485C273.516 159.48 271.3 156.757 267.348 156.757C264.118 156.757 261.207 159.507 261.207 163.539C261.207 167.891 264.224 170.401 267.669 170.401C270.659 170.401 272.715 168.612 273.436 166.342L271.273 165.594ZM285.184 170.401C289.536 170.401 292.526 167.864 293.541 164.313L291.218 163.458C290.444 166.048 288.414 167.997 285.184 167.997C281.739 167.997 278.455 165.461 278.455 160.521C278.455 155.582 281.739 153.072 285.184 153.072C288.281 153.072 290.364 154.674 291.084 157.531L293.514 156.677C292.553 153.019 289.509 150.669 285.184 150.669C280.485 150.669 275.785 154.194 275.785 160.521C275.785 166.849 280.298 170.401 285.184 170.401ZM301.724 168.158C299.588 168.158 297.719 166.556 297.719 163.565C297.719 160.602 299.588 159 301.724 159C303.86 159 305.729 160.602 305.729 163.565C305.729 166.556 303.86 168.158 301.724 168.158ZM301.724 156.757C297.879 156.757 295.155 159.667 295.155 163.565C295.155 167.49 297.879 170.401 301.724 170.401C305.568 170.401 308.292 167.49 308.292 163.565C308.292 159.667 305.568 156.757 301.724 156.757ZM313.986 170V162.257C313.986 160.335 315.187 159 316.976 159C318.899 159 319.7 160.281 319.7 161.937V170H322.21V162.23C322.21 160.388 323.411 159 325.173 159C327.069 159 327.897 160.254 327.897 161.937V170H330.38V161.67C330.38 158.305 328.19 156.783 325.948 156.783C324.319 156.783 322.663 157.371 321.649 159.213C320.955 157.558 319.406 156.783 317.804 156.783C316.309 156.783 314.707 157.451 313.906 158.866V157.157H311.503V170H313.986ZM336.879 170V162.257C336.879 160.335 338.081 159 339.87 159C341.792 159 342.593 160.281 342.593 161.937V170H345.103V162.23C345.103 160.388 346.304 159 348.066 159C349.962 159 350.79 160.254 350.79 161.937V170H353.273V161.67C353.273 158.305 351.084 156.783 348.841 156.783C347.212 156.783 345.557 157.371 344.542 159.213C343.848 157.558 342.299 156.783 340.697 156.783C339.202 156.783 337.6 157.451 336.799 158.866V157.157H334.396V170H336.879ZM358.918 162.257C359.025 160.602 360.306 158.973 362.416 158.973C364.685 158.973 365.887 160.415 365.94 162.257H358.918ZM366.314 165.594C365.833 167.036 364.792 168.184 362.709 168.184C360.547 168.184 358.891 166.582 358.838 164.286H368.503C368.53 164.126 368.557 163.806 368.557 163.485C368.557 159.48 366.34 156.757 362.389 156.757C359.158 156.757 356.248 159.507 356.248 163.539C356.248 167.891 359.265 170.401 362.709 170.401C365.7 170.401 367.756 168.612 368.476 166.342L366.314 165.594ZM378.889 157.024C378.756 156.997 378.409 156.944 378.062 156.944C376.753 156.944 375.151 157.424 374.217 159.4V157.157H371.76V170H374.27V163.565C374.27 160.735 375.685 159.614 377.795 159.614C378.142 159.614 378.515 159.64 378.889 159.694V157.024ZM386.827 159.08C389.017 159.08 389.951 160.548 390.272 161.803L392.541 160.842C392.007 158.893 390.245 156.757 386.827 156.757C383.169 156.757 380.366 159.56 380.366 163.565C380.366 167.463 383.116 170.401 386.854 170.401C390.192 170.401 392.034 168.238 392.648 166.395L390.432 165.434C390.138 166.449 389.257 168.078 386.854 168.078C384.771 168.078 382.929 166.502 382.929 163.565C382.929 160.575 384.798 159.08 386.827 159.08ZM397.091 162.257C397.197 160.602 398.479 158.973 400.588 158.973C402.858 158.973 404.059 160.415 404.113 162.257H397.091ZM404.486 165.594C404.006 167.036 402.965 168.184 400.882 168.184C398.719 168.184 397.064 166.582 397.01 164.286H406.676C406.703 164.126 406.729 163.806 406.729 163.485C406.729 159.48 404.513 156.757 400.562 156.757C397.331 156.757 394.421 159.507 394.421 163.539C394.421 167.891 397.438 170.401 400.882 170.401C403.872 170.401 405.928 168.612 406.649 166.342L404.486 165.594ZM419.091 175.073V168.264C419.785 169.413 421.281 170.347 423.256 170.347C427.021 170.347 429.237 167.383 429.237 163.565C429.237 159.827 427.181 156.864 423.336 156.864C421.254 156.864 419.732 157.878 419.038 159.16V157.157H416.608V175.073H419.091ZM426.674 163.565C426.674 166.209 425.205 168.104 422.883 168.104C420.586 168.104 419.064 166.209 419.064 163.565C419.064 161.002 420.586 159.08 422.883 159.08C425.232 159.08 426.674 161.002 426.674 163.565ZM434.945 170V150.669H432.435V170H434.945ZM438.413 166.556C438.413 168.585 440.095 170.401 442.712 170.401C445.008 170.401 446.29 169.172 446.851 168.264C446.851 169.199 446.931 169.68 446.984 170H449.441C449.387 169.68 449.28 169.012 449.28 167.891V161.456C449.28 158.946 447.785 156.757 443.94 156.757C441.164 156.757 438.947 158.466 438.68 160.922L441.083 161.483C441.244 159.987 442.231 158.893 443.994 158.893C445.943 158.893 446.771 159.934 446.771 161.189C446.771 161.643 446.557 162.043 445.783 162.15L442.312 162.657C440.095 162.978 438.413 164.259 438.413 166.556ZM443.059 168.291C441.778 168.291 440.977 167.383 440.977 166.422C440.977 165.274 441.778 164.66 442.846 164.5L446.771 163.912V164.5C446.771 167.303 445.115 168.291 443.059 168.291ZM456.554 153.099H454.258V155.181C454.258 156.303 453.671 157.157 452.282 157.157H451.588V159.427H454.045V166.476C454.045 168.798 455.433 170.134 457.622 170.134C458.477 170.134 459.118 169.973 459.331 169.893V167.757C459.118 167.811 458.664 167.864 458.343 167.864C457.035 167.864 456.554 167.277 456.554 166.102V159.427H459.331V157.157H456.554V153.099ZM469.143 159.427V157.157H466.045V155.128C466.045 153.366 467.193 152.939 468.075 152.939C468.715 152.939 469.036 153.045 469.169 153.099V150.856C469.062 150.776 468.528 150.589 467.674 150.589C465.351 150.589 463.455 152.138 463.455 154.995V157.157H461.079V159.427H463.455V170H466.045V159.427H469.143ZM476.812 168.158C474.676 168.158 472.807 166.556 472.807 163.565C472.807 160.602 474.676 159 476.812 159C478.948 159 480.817 160.602 480.817 163.565C480.817 166.556 478.948 168.158 476.812 168.158ZM476.812 156.757C472.967 156.757 470.244 159.667 470.244 163.565C470.244 167.49 472.967 170.401 476.812 170.401C480.657 170.401 483.38 167.49 483.38 163.565C483.38 159.667 480.657 156.757 476.812 156.757ZM493.72 157.024C493.587 156.997 493.24 156.944 492.892 156.944C491.584 156.944 489.982 157.424 489.048 159.4V157.157H486.591V170H489.101V163.565C489.101 160.735 490.516 159.614 492.625 159.614C492.973 159.614 493.346 159.64 493.72 159.694V157.024ZM498.878 170V162.257C498.878 160.335 500.08 159 501.869 159C503.791 159 504.592 160.281 504.592 161.937V170H507.102V162.23C507.102 160.388 508.303 159 510.066 159C511.961 159 512.789 160.254 512.789 161.937V170H515.272V161.67C515.272 158.305 513.083 156.783 510.84 156.783C509.211 156.783 507.556 157.371 506.541 159.213C505.847 157.558 504.298 156.783 502.696 156.783C501.201 156.783 499.599 157.451 498.798 158.866V157.157H496.395V170H498.878ZM525.162 166.556C525.162 168.585 526.844 170.401 529.461 170.401C531.757 170.401 533.039 169.172 533.6 168.264C533.6 169.199 533.68 169.68 533.733 170H536.189C536.136 169.68 536.029 169.012 536.029 167.891V161.456C536.029 158.946 534.534 156.757 530.689 156.757C527.912 156.757 525.696 158.466 525.429 160.922L527.832 161.483C527.993 159.987 528.98 158.893 530.743 158.893C532.692 158.893 533.519 159.934 533.519 161.189C533.519 161.643 533.306 162.043 532.532 162.15L529.061 162.657C526.844 162.978 525.162 164.259 525.162 166.556ZM529.808 168.291C528.527 168.291 527.726 167.383 527.726 166.422C527.726 165.274 528.527 164.66 529.595 164.5L533.519 163.912V164.5C533.519 167.303 531.864 168.291 529.808 168.291ZM542.449 170V150.669H539.939V170H542.449ZM549.228 170V150.669H546.718V170H549.228ZM558.998 168.158C556.862 168.158 554.993 166.556 554.993 163.565C554.993 160.602 556.862 159 558.998 159C561.134 159 563.003 160.602 563.003 163.565C563.003 166.556 561.134 168.158 558.998 168.158ZM558.998 156.757C555.153 156.757 552.43 159.667 552.43 163.565C552.43 167.49 555.153 170.401 558.998 170.401C562.843 170.401 565.566 167.49 565.566 163.565C565.566 159.667 562.843 156.757 558.998 156.757ZM575.752 157.157L572.415 166.823L569.531 157.157H566.781L571 170H573.643L576.98 160.228L580.398 170H582.988L587.153 157.157H584.51L581.68 166.823L578.342 157.157H575.752ZM588.487 166.662C588.701 168.131 590.196 170.401 593.72 170.401C596.898 170.401 598.42 168.238 598.42 166.422C598.42 164.526 597.191 163.111 594.869 162.604L592.786 162.15C591.798 161.937 591.317 161.376 591.317 160.602C591.317 159.72 592.172 158.893 593.453 158.893C595.483 158.893 596.017 160.361 596.123 161.029L598.34 160.201C598.073 159.053 596.978 156.757 593.453 156.757C590.944 156.757 588.888 158.626 588.888 160.815C588.888 162.631 590.089 163.992 592.092 164.42L594.281 164.9C595.349 165.141 595.937 165.755 595.937 166.556C595.937 167.463 595.162 168.264 593.747 168.264C591.932 168.264 590.917 167.196 590.757 165.861L588.487 166.662ZM610.919 175.073V168.264C611.613 169.413 613.109 170.347 615.084 170.347C618.849 170.347 621.065 167.383 621.065 163.565C621.065 159.827 619.009 156.864 615.164 156.864C613.082 156.864 611.56 157.878 610.866 159.16V157.157H608.436V175.073H610.919ZM618.502 163.565C618.502 166.209 617.033 168.104 614.711 168.104C612.414 168.104 610.892 166.209 610.892 163.565C610.892 161.002 612.414 159.08 614.711 159.08C617.06 159.08 618.502 161.002 618.502 163.565ZM625.892 162.257C625.999 160.602 627.28 158.973 629.39 158.973C631.659 158.973 632.861 160.415 632.914 162.257H625.892ZM633.288 165.594C632.807 167.036 631.766 168.184 629.683 168.184C627.521 168.184 625.865 166.582 625.812 164.286H635.477C635.504 164.126 635.531 163.806 635.531 163.485C635.531 159.48 633.314 156.757 629.363 156.757C626.132 156.757 623.222 159.507 623.222 163.539C623.222 167.891 626.239 170.401 629.683 170.401C632.674 170.401 634.73 168.612 635.45 166.342L633.288 165.594ZM644.235 168.158C642.099 168.158 640.23 166.556 640.23 163.565C640.23 160.602 642.099 159 644.235 159C646.371 159 648.24 160.602 648.24 163.565C648.24 166.556 646.371 168.158 644.235 168.158ZM644.235 156.757C640.39 156.757 637.666 159.667 637.666 163.565C637.666 167.49 640.39 170.401 644.235 170.401C648.079 170.401 650.803 167.49 650.803 163.565C650.803 159.667 648.079 156.757 644.235 156.757ZM656.497 175.073V168.264C657.191 169.413 658.686 170.347 660.662 170.347C664.427 170.347 666.643 167.383 666.643 163.565C666.643 159.827 664.587 156.864 660.742 156.864C658.66 156.864 657.138 157.878 656.444 159.16V157.157H654.014V175.073H656.497ZM664.08 163.565C664.08 166.209 662.611 168.104 660.288 168.104C657.992 168.104 656.47 166.209 656.47 163.565C656.47 161.002 657.992 159.08 660.288 159.08C662.638 159.08 664.08 161.002 664.08 163.565ZM672.351 170V150.669H669.841V170H672.351ZM678.249 162.257C678.356 160.602 679.637 158.973 681.747 158.973C684.016 158.973 685.218 160.415 685.271 162.257H678.249ZM685.645 165.594C685.164 167.036 684.123 168.184 682.04 168.184C679.878 168.184 678.222 166.582 678.169 164.286H687.834C687.861 164.126 687.888 163.806 687.888 163.485C687.888 159.48 685.671 156.757 681.72 156.757C678.489 156.757 675.579 159.507 675.579 163.539C675.579 167.891 678.596 170.401 682.04 170.401C685.031 170.401 687.087 168.612 687.807 166.342L685.645 165.594ZM160.781 193.099H158.485V195.181C158.485 196.303 157.898 197.157 156.509 197.157H155.815V199.427H158.272V206.476C158.272 208.798 159.66 210.134 161.849 210.134C162.704 210.134 163.345 209.973 163.558 209.893V207.757C163.345 207.811 162.891 207.864 162.57 207.864C161.262 207.864 160.781 207.277 160.781 206.102V199.427H163.558V197.157H160.781V193.099ZM172.278 208.158C170.142 208.158 168.273 206.556 168.273 203.565C168.273 200.602 170.142 199 172.278 199C174.414 199 176.283 200.602 176.283 203.565C176.283 206.556 174.414 208.158 172.278 208.158ZM172.278 196.757C168.433 196.757 165.71 199.667 165.71 203.565C165.71 207.49 168.433 210.401 172.278 210.401C176.123 210.401 178.846 207.49 178.846 203.565C178.846 199.667 176.123 196.757 172.278 196.757ZM187.531 206.662C187.745 208.131 189.24 210.401 192.764 210.401C195.941 210.401 197.463 208.238 197.463 206.422C197.463 204.526 196.235 203.111 193.912 202.604L191.83 202.15C190.842 201.937 190.361 201.376 190.361 200.602C190.361 199.72 191.216 198.893 192.497 198.893C194.526 198.893 195.06 200.361 195.167 201.029L197.383 200.201C197.116 199.053 196.022 196.757 192.497 196.757C189.987 196.757 187.931 198.626 187.931 200.815C187.931 202.631 189.133 203.992 191.135 204.42L193.325 204.9C194.393 205.141 194.98 205.755 194.98 206.556C194.98 207.463 194.206 208.264 192.791 208.264C190.975 208.264 189.961 207.196 189.8 205.861L187.531 206.662ZM204.169 193.099H201.873V195.181C201.873 196.303 201.285 197.157 199.897 197.157H199.203V199.427H201.659V206.476C201.659 208.798 203.048 210.134 205.237 210.134C206.091 210.134 206.732 209.973 206.946 209.893V207.757C206.732 207.811 206.278 207.864 205.958 207.864C204.65 207.864 204.169 207.277 204.169 206.102V199.427H206.946V197.157H204.169V193.099ZM209.495 206.556C209.495 208.585 211.177 210.401 213.793 210.401C216.09 210.401 217.371 209.172 217.932 208.264C217.932 209.199 218.012 209.68 218.065 210H220.522C220.468 209.68 220.362 209.012 220.362 207.891V201.456C220.362 198.946 218.866 196.757 215.022 196.757C212.245 196.757 210.029 198.466 209.762 200.922L212.165 201.483C212.325 199.987 213.313 198.893 215.075 198.893C217.024 198.893 217.852 199.934 217.852 201.189C217.852 201.643 217.638 202.043 216.864 202.15L213.393 202.657C211.177 202.978 209.495 204.259 209.495 206.556ZM214.141 208.291C212.859 208.291 212.058 207.383 212.058 206.422C212.058 205.274 212.859 204.66 213.927 204.5L217.852 203.912V204.5C217.852 207.303 216.196 208.291 214.141 208.291ZM231.4 197.024C231.267 196.997 230.92 196.944 230.573 196.944C229.264 196.944 227.662 197.424 226.728 199.4V197.157H224.272V210H226.781V203.565C226.781 200.735 228.196 199.614 230.306 199.614C230.653 199.614 231.027 199.64 231.4 199.694V197.024ZM238.118 193.099H235.821V195.181C235.821 196.303 235.234 197.157 233.846 197.157H233.151V199.427H235.608V206.476C235.608 208.798 236.996 210.134 239.186 210.134C240.04 210.134 240.681 209.973 240.894 209.893V207.757C240.681 207.811 240.227 207.864 239.907 207.864C238.598 207.864 238.118 207.277 238.118 206.102V199.427H240.894V197.157H238.118V193.099ZM257.381 199.427V197.157H254.284V195.128C254.284 193.366 255.432 192.939 256.313 192.939C256.954 192.939 257.274 193.045 257.408 193.099V190.856C257.301 190.776 256.767 190.589 255.912 190.589C253.589 190.589 251.694 192.138 251.694 194.995V197.157H249.317V199.427H251.694V210H254.284V199.427H257.381ZM265.05 208.158C262.914 208.158 261.045 206.556 261.045 203.565C261.045 200.602 262.914 199 265.05 199C267.186 199 269.055 200.602 269.055 203.565C269.055 206.556 267.186 208.158 265.05 208.158ZM265.05 196.757C261.205 196.757 258.482 199.667 258.482 203.565C258.482 207.49 261.205 210.401 265.05 210.401C268.895 210.401 271.618 207.49 271.618 203.565C271.618 199.667 268.895 196.757 265.05 196.757ZM281.958 197.024C281.825 196.997 281.478 196.944 281.131 196.944C279.822 196.944 278.22 197.424 277.286 199.4V197.157H274.829V210H277.339V203.565C277.339 200.735 278.754 199.614 280.864 199.614C281.211 199.614 281.585 199.64 281.958 199.694V197.024ZM297.77 199.427V197.157H294.673V195.128C294.673 193.366 295.821 192.939 296.702 192.939C297.343 192.939 297.663 193.045 297.796 193.099V190.856C297.69 190.776 297.156 190.589 296.301 190.589C293.978 190.589 292.083 192.138 292.083 194.995V197.157H289.706V199.427H292.083V210H294.673V199.427H297.77ZM307.589 197.024C307.456 196.997 307.109 196.944 306.762 196.944C305.453 196.944 303.851 197.424 302.917 199.4V197.157H300.46V210H302.97V203.565C302.97 200.735 304.385 199.614 306.495 199.614C306.842 199.614 307.216 199.64 307.589 199.694V197.024ZM311.763 202.257C311.869 200.602 313.151 198.973 315.26 198.973C317.53 198.973 318.731 200.415 318.785 202.257H311.763ZM319.159 205.594C318.678 207.036 317.637 208.184 315.554 208.184C313.391 208.184 311.736 206.582 311.683 204.286H321.348C321.375 204.126 321.401 203.806 321.401 203.485C321.401 199.48 319.185 196.757 315.234 196.757C312.003 196.757 309.093 199.507 309.093 203.539C309.093 207.891 312.11 210.401 315.554 210.401C318.544 210.401 320.6 208.612 321.321 206.342L319.159 205.594ZM326.234 202.257C326.341 200.602 327.622 198.973 329.732 198.973C332.001 198.973 333.203 200.415 333.256 202.257H326.234ZM333.63 205.594C333.149 207.036 332.108 208.184 330.025 208.184C327.863 208.184 326.207 206.582 326.154 204.286H335.819C335.846 204.126 335.873 203.806 335.873 203.485C335.873 199.48 333.656 196.757 329.705 196.757C326.474 196.757 323.564 199.507 323.564 203.539C323.564 207.891 326.581 210.401 330.025 210.401C333.016 210.401 335.072 208.612 335.792 206.342L333.63 205.594ZM344.95 206.556C344.95 208.585 346.632 210.401 349.249 210.401C351.545 210.401 352.827 209.172 353.388 208.264C353.388 209.199 353.468 209.68 353.521 210H355.977C355.924 209.68 355.817 209.012 355.817 207.891V201.456C355.817 198.946 354.322 196.757 350.477 196.757C347.7 196.757 345.484 198.466 345.217 200.922L347.62 201.483C347.781 199.987 348.768 198.893 350.531 198.893C352.48 198.893 353.307 199.934 353.307 201.189C353.307 201.643 353.094 202.043 352.32 202.15L348.849 202.657C346.632 202.978 344.95 204.259 344.95 206.556ZM349.596 208.291C348.315 208.291 347.514 207.383 347.514 206.422C347.514 205.274 348.315 204.66 349.383 204.5L353.307 203.912V204.5C353.307 207.303 351.652 208.291 349.596 208.291ZM362.237 202.577C362.237 200.628 363.252 199.053 365.227 199.053C367.47 199.053 368.218 200.495 368.218 202.284V210H370.728V201.856C370.728 199 369.206 196.783 366.135 196.783C364.64 196.783 363.118 197.398 362.184 199V197.157H359.727V210H362.237V202.577ZM376.215 203.539C376.215 200.895 377.71 199.026 380.006 199.026C382.303 199.026 383.691 200.842 383.691 203.485C383.691 206.128 382.276 208.131 379.98 208.131C377.577 208.131 376.215 206.182 376.215 203.539ZM383.718 208.264C383.718 209.039 383.798 209.706 383.851 210H386.281C386.254 209.786 386.147 208.852 386.147 207.624V190.669H383.664V198.973C383.237 197.932 382.009 196.81 379.739 196.81C376.108 196.81 373.652 199.907 373.652 203.539C373.652 207.357 375.975 210.347 379.739 210.347C381.742 210.347 383.104 209.279 383.718 208.051V208.264ZM396.157 210.694C396.477 213.444 398.88 215.474 402.084 215.474C406.917 215.474 408.519 212.296 408.519 209.039V197.157H406.036V198.946C405.395 197.665 404.06 196.917 402.084 196.917C398.56 196.917 396.184 199.694 396.184 203.165C396.184 206.796 398.667 209.386 402.084 209.386C404.007 209.386 405.395 208.451 406.009 207.277V209.119C406.009 211.896 404.781 213.284 402.084 213.284C400.135 213.284 398.774 211.922 398.587 210.134L396.157 210.694ZM402.458 207.277C400.189 207.277 398.747 205.675 398.747 203.165C398.747 200.682 400.242 199.053 402.458 199.053C404.621 199.053 406.116 200.682 406.116 203.165C406.116 205.648 404.621 207.277 402.458 207.277ZM419.656 197.024C419.523 196.997 419.176 196.944 418.829 196.944C417.52 196.944 415.918 197.424 414.984 199.4V197.157H412.527V210H415.037V203.565C415.037 200.735 416.452 199.614 418.562 199.614C418.909 199.614 419.283 199.64 419.656 199.694V197.024ZM427.701 208.158C425.565 208.158 423.696 206.556 423.696 203.565C423.696 200.602 425.565 199 427.701 199C429.837 199 431.706 200.602 431.706 203.565C431.706 206.556 429.837 208.158 427.701 208.158ZM427.701 196.757C423.856 196.757 421.133 199.667 421.133 203.565C421.133 207.49 423.856 210.401 427.701 210.401C431.546 210.401 434.269 207.49 434.269 203.565C434.269 199.667 431.546 196.757 427.701 196.757ZM444.455 197.157L441.118 206.823L438.234 197.157H435.484L439.703 210H442.346L445.684 200.228L449.101 210H451.691L455.856 197.157H453.213L450.383 206.823L447.045 197.157H444.455ZM468.431 193.099H466.135V195.181C466.135 196.303 465.548 197.157 464.159 197.157H463.465V199.427H465.921V206.476C465.921 208.798 467.31 210.134 469.499 210.134C470.354 210.134 470.994 209.973 471.208 209.893V207.757C470.994 207.811 470.541 207.864 470.22 207.864C468.912 207.864 468.431 207.277 468.431 206.102V199.427H471.208V197.157H468.431V193.099ZM477.068 202.444C477.121 200.548 478.136 199.053 480.058 199.053C482.301 199.053 483.049 200.495 483.049 202.284V210H485.558V201.856C485.558 199 484.036 196.783 480.966 196.783C479.497 196.783 478.002 197.291 477.068 198.652V190.669H474.558V210H477.068V202.444ZM491.179 202.257C491.286 200.602 492.568 198.973 494.677 198.973C496.947 198.973 498.148 200.415 498.201 202.257H491.179ZM498.575 205.594C498.095 207.036 497.053 208.184 494.971 208.184C492.808 208.184 491.153 206.582 491.099 204.286H500.765C500.791 204.126 500.818 203.806 500.818 203.485C500.818 199.48 498.602 196.757 494.65 196.757C491.42 196.757 488.509 199.507 488.509 203.539C488.509 207.891 491.526 210.401 494.971 210.401C497.961 210.401 500.017 208.612 500.738 206.342L498.575 205.594ZM506.505 210V197.157H504.022V210H506.505ZM503.461 192.298C503.461 193.286 504.262 194.087 505.25 194.087C506.265 194.087 507.066 193.286 507.066 192.298C507.066 191.283 506.265 190.482 505.25 190.482C504.262 190.482 503.461 191.283 503.461 192.298ZM517.904 197.024C517.77 196.997 517.423 196.944 517.076 196.944C515.768 196.944 514.166 197.424 513.231 199.4V197.157H510.775V210H513.285V203.565C513.285 200.735 514.7 199.614 516.809 199.614C517.156 199.614 517.53 199.64 517.904 199.694V197.024ZM526.053 206.662C526.266 208.131 527.761 210.401 531.286 210.401C534.463 210.401 535.985 208.238 535.985 206.422C535.985 204.526 534.757 203.111 532.434 202.604L530.351 202.15C529.363 201.937 528.883 201.376 528.883 200.602C528.883 199.72 529.737 198.893 531.019 198.893C533.048 198.893 533.582 200.361 533.689 201.029L535.905 200.201C535.638 199.053 534.543 196.757 531.019 196.757C528.509 196.757 526.453 198.626 526.453 200.815C526.453 202.631 527.655 203.992 529.657 204.42L531.846 204.9C532.914 205.141 533.502 205.755 533.502 206.556C533.502 207.463 532.728 208.264 531.312 208.264C529.497 208.264 528.482 207.196 528.322 205.861L526.053 206.662ZM542.691 193.099H540.394V195.181C540.394 196.303 539.807 197.157 538.419 197.157H537.724V199.427H540.181V206.476C540.181 208.798 541.569 210.134 543.759 210.134C544.613 210.134 545.254 209.973 545.467 209.893V207.757C545.254 207.811 544.8 207.864 544.479 207.864C543.171 207.864 542.691 207.277 542.691 206.102V199.427H545.467V197.157H542.691V193.099ZM554.187 208.158C552.051 208.158 550.182 206.556 550.182 203.565C550.182 200.602 552.051 199 554.187 199C556.323 199 558.192 200.602 558.192 203.565C558.192 206.556 556.323 208.158 554.187 208.158ZM554.187 196.757C550.342 196.757 547.619 199.667 547.619 203.565C547.619 207.49 550.342 210.401 554.187 210.401C558.032 210.401 560.755 207.49 560.755 203.565C560.755 199.667 558.032 196.757 554.187 196.757ZM571.095 197.024C570.962 196.997 570.615 196.944 570.268 196.944C568.959 196.944 567.357 197.424 566.423 199.4V197.157H563.967V210H566.476V203.565C566.476 200.735 567.891 199.614 570.001 199.614C570.348 199.614 570.722 199.64 571.095 199.694V197.024ZM575.269 202.257C575.376 200.602 576.657 198.973 578.766 198.973C581.036 198.973 582.237 200.415 582.291 202.257H575.269ZM582.665 205.594C582.184 207.036 581.143 208.184 579.06 208.184C576.897 208.184 575.242 206.582 575.189 204.286H584.854C584.881 204.126 584.907 203.806 584.907 203.485C584.907 199.48 582.691 196.757 578.74 196.757C575.509 196.757 572.599 199.507 572.599 203.539C572.599 207.891 575.616 210.401 579.06 210.401C582.051 210.401 584.106 208.612 584.827 206.342L582.665 205.594ZM593.985 206.556C593.985 208.585 595.667 210.401 598.284 210.401C600.58 210.401 601.862 209.172 602.422 208.264C602.422 209.199 602.503 209.68 602.556 210H605.012C604.959 209.68 604.852 209.012 604.852 207.891V201.456C604.852 198.946 603.357 196.757 599.512 196.757C596.735 196.757 594.519 198.466 594.252 200.922L596.655 201.483C596.815 199.987 597.803 198.893 599.566 198.893C601.515 198.893 602.342 199.934 602.342 201.189C602.342 201.643 602.129 202.043 601.354 202.15L597.883 202.657C595.667 202.978 593.985 204.259 593.985 206.556ZM598.631 208.291C597.349 208.291 596.548 207.383 596.548 206.422C596.548 205.274 597.349 204.66 598.417 204.5L602.342 203.912V204.5C602.342 207.303 600.687 208.291 598.631 208.291ZM607.561 206.662C607.774 208.131 609.269 210.401 612.794 210.401C615.971 210.401 617.493 208.238 617.493 206.422C617.493 204.526 616.265 203.111 613.942 202.604L611.859 202.15C610.871 201.937 610.391 201.376 610.391 200.602C610.391 199.72 611.245 198.893 612.527 198.893C614.556 198.893 615.09 200.361 615.197 201.029L617.413 200.201C617.146 199.053 616.051 196.757 612.527 196.757C610.017 196.757 607.961 198.626 607.961 200.815C607.961 202.631 609.163 203.992 611.165 204.42L613.354 204.9C614.422 205.141 615.01 205.755 615.01 206.556C615.01 207.463 614.236 208.264 612.82 208.264C611.005 208.264 609.99 207.196 609.83 205.861L607.561 206.662ZM630.874 193.099H628.577V195.181C628.577 196.303 627.99 197.157 626.602 197.157H625.907V199.427H628.364V206.476C628.364 208.798 629.752 210.134 631.942 210.134C632.796 210.134 633.437 209.973 633.65 209.893V207.757C633.437 207.811 632.983 207.864 632.662 207.864C631.354 207.864 630.874 207.277 630.874 206.102V199.427H633.65V197.157H630.874V193.099ZM639.51 202.444C639.564 200.548 640.578 199.053 642.501 199.053C644.743 199.053 645.491 200.495 645.491 202.284V210H648.001V201.856C648.001 199 646.479 196.783 643.408 196.783C641.94 196.783 640.445 197.291 639.51 198.652V190.669H637V210H639.51V202.444ZM653.622 202.257C653.729 200.602 655.01 198.973 657.119 198.973C659.389 198.973 660.59 200.415 660.644 202.257H653.622ZM661.018 205.594C660.537 207.036 659.496 208.184 657.413 208.184C655.25 208.184 653.595 206.582 653.542 204.286H663.207C663.234 204.126 663.26 203.806 663.26 203.485C663.26 199.48 661.044 196.757 657.093 196.757C653.862 196.757 650.952 199.507 650.952 203.539C650.952 207.891 653.969 210.401 657.413 210.401C660.404 210.401 662.459 208.612 663.18 206.342L661.018 205.594ZM668.947 210V197.157H666.464V210H668.947ZM665.904 192.298C665.904 193.286 666.705 194.087 667.692 194.087C668.707 194.087 669.508 193.286 669.508 192.298C669.508 191.283 668.707 190.482 667.692 190.482C666.705 190.482 665.904 191.283 665.904 192.298ZM680.346 197.024C680.213 196.997 679.866 196.944 679.519 196.944C678.21 196.944 676.608 197.424 675.674 199.4V197.157H673.218V210H675.727V203.565C675.727 200.735 677.142 199.614 679.252 199.614C679.599 199.614 679.973 199.64 680.346 199.694V197.024ZM215.882 249V247.131C216.683 248.519 218.151 249.347 220.047 249.347C223.865 249.347 226.028 246.33 226.028 242.512C226.028 238.774 224.025 235.783 220.127 235.783C217.991 235.783 216.496 236.825 215.882 237.973V229.669H213.399V249H215.882ZM223.465 242.512C223.465 245.289 221.969 247.104 219.673 247.104C217.457 247.104 215.855 245.289 215.855 242.512C215.855 239.735 217.457 238 219.673 238C221.996 238 223.465 239.735 223.465 242.512ZM237.559 247.451C237.559 247.985 237.613 248.706 237.666 249H240.069C240.016 248.546 239.936 247.638 239.936 246.624V236.157H237.426V243.9C237.426 245.849 236.411 247.184 234.382 247.184C232.273 247.184 231.472 245.636 231.472 243.874V236.157H228.962V244.247C228.962 247.158 230.777 249.401 233.768 249.401C235.263 249.401 236.865 248.786 237.559 247.451ZM243.017 245.662C243.23 247.131 244.726 249.401 248.25 249.401C251.427 249.401 252.949 247.238 252.949 245.422C252.949 243.526 251.721 242.111 249.398 241.604L247.316 241.15C246.328 240.937 245.847 240.376 245.847 239.602C245.847 238.72 246.701 237.893 247.983 237.893C250.012 237.893 250.546 239.361 250.653 240.029L252.869 239.201C252.602 238.053 251.507 235.757 247.983 235.757C245.473 235.757 243.417 237.626 243.417 239.815C243.417 241.631 244.619 242.992 246.621 243.42L248.811 243.9C249.879 244.141 250.466 244.755 250.466 245.556C250.466 246.463 249.692 247.264 248.277 247.264C246.461 247.264 245.447 246.196 245.286 244.861L243.017 245.662ZM258.774 249V236.157H256.291V249H258.774ZM255.73 231.298C255.73 232.286 256.531 233.087 257.519 233.087C258.534 233.087 259.335 232.286 259.335 231.298C259.335 230.283 258.534 229.482 257.519 229.482C256.531 229.482 255.73 230.283 255.73 231.298ZM265.554 241.577C265.554 239.628 266.568 238.053 268.544 238.053C270.787 238.053 271.535 239.495 271.535 241.284V249H274.044V240.856C274.044 238 272.522 235.783 269.452 235.783C267.957 235.783 266.435 236.398 265.5 238V236.157H263.044V249H265.554V241.577ZM279.665 241.257C279.772 239.602 281.054 237.973 283.163 237.973C285.433 237.973 286.634 239.415 286.687 241.257H279.665ZM287.061 244.594C286.581 246.036 285.539 247.184 283.457 247.184C281.294 247.184 279.639 245.582 279.585 243.286H289.251C289.277 243.126 289.304 242.806 289.304 242.485C289.304 238.48 287.088 235.757 283.136 235.757C279.906 235.757 276.995 238.507 276.995 242.539C276.995 246.891 280.012 249.401 283.457 249.401C286.447 249.401 288.503 247.612 289.224 245.342L287.061 244.594ZM291.306 245.662C291.52 247.131 293.015 249.401 296.54 249.401C299.717 249.401 301.239 247.238 301.239 245.422C301.239 243.526 300.011 242.111 297.688 241.604L295.605 241.15C294.617 240.937 294.137 240.376 294.137 239.602C294.137 238.72 294.991 237.893 296.273 237.893C298.302 237.893 298.836 239.361 298.943 240.029L301.159 239.201C300.892 238.053 299.797 235.757 296.273 235.757C293.763 235.757 291.707 237.626 291.707 239.815C291.707 241.631 292.908 242.992 294.911 243.42L297.1 243.9C298.168 244.141 298.756 244.755 298.756 245.556C298.756 246.463 297.981 247.264 296.566 247.264C294.751 247.264 293.736 246.196 293.576 244.861L291.306 245.662ZM303.379 245.662C303.592 247.131 305.087 249.401 308.612 249.401C311.789 249.401 313.311 247.238 313.311 245.422C313.311 243.526 312.083 242.111 309.76 241.604L307.677 241.15C306.689 240.937 306.209 240.376 306.209 239.602C306.209 238.72 307.063 237.893 308.345 237.893C310.374 237.893 310.908 239.361 311.015 240.029L313.231 239.201C312.964 238.053 311.869 235.757 308.345 235.757C305.835 235.757 303.779 237.626 303.779 239.815C303.779 241.631 304.981 242.992 306.983 243.42L309.173 243.9C310.241 244.141 310.828 244.755 310.828 245.556C310.828 246.463 310.054 247.264 308.639 247.264C306.823 247.264 305.808 246.196 305.648 244.861L303.379 245.662ZM322.393 249.694C322.713 252.444 325.116 254.474 328.32 254.474C333.153 254.474 334.755 251.296 334.755 248.039V236.157H332.272V237.946C331.631 236.665 330.296 235.917 328.32 235.917C324.796 235.917 322.42 238.694 322.42 242.165C322.42 245.796 324.903 248.386 328.32 248.386C330.243 248.386 331.631 247.451 332.245 246.277V248.119C332.245 250.896 331.017 252.284 328.32 252.284C326.371 252.284 325.01 250.922 324.823 249.134L322.393 249.694ZM328.694 246.277C326.425 246.277 324.983 244.675 324.983 242.165C324.983 239.682 326.478 238.053 328.694 238.053C330.857 238.053 332.352 239.682 332.352 242.165C332.352 244.648 330.857 246.277 328.694 246.277ZM345.892 236.024C345.759 235.997 345.412 235.944 345.065 235.944C343.756 235.944 342.154 236.424 341.22 238.4V236.157H338.763V249H341.273V242.565C341.273 239.735 342.688 238.614 344.798 238.614C345.145 238.614 345.519 238.64 345.892 238.694V236.024ZM353.937 247.158C351.801 247.158 349.932 245.556 349.932 242.565C349.932 239.602 351.801 238 353.937 238C356.073 238 357.942 239.602 357.942 242.565C357.942 245.556 356.073 247.158 353.937 247.158ZM353.937 235.757C350.092 235.757 347.369 238.667 347.369 242.565C347.369 246.49 350.092 249.401 353.937 249.401C357.782 249.401 360.505 246.49 360.505 242.565C360.505 238.667 357.782 235.757 353.937 235.757ZM370.691 236.157L367.354 245.823L364.47 236.157H361.72L365.939 249H368.582L371.92 239.228L375.337 249H377.927L382.092 236.157H379.449L376.619 245.823L373.281 236.157H370.691ZM383.427 245.662C383.64 247.131 385.135 249.401 388.66 249.401C391.837 249.401 393.359 247.238 393.359 245.422C393.359 243.526 392.131 242.111 389.808 241.604L387.725 241.15C386.737 240.937 386.257 240.376 386.257 239.602C386.257 238.72 387.111 237.893 388.393 237.893C390.422 237.893 390.956 239.361 391.063 240.029L393.279 239.201C393.012 238.053 391.917 235.757 388.393 235.757C385.883 235.757 383.827 237.626 383.827 239.815C383.827 241.631 385.029 242.992 387.031 243.42L389.22 243.9C390.288 244.141 390.876 244.755 390.876 245.556C390.876 246.463 390.102 247.264 388.686 247.264C386.871 247.264 385.856 246.196 385.696 244.861L383.427 245.662ZM396.433 247.291C396.433 248.332 397.234 249.134 398.276 249.134C399.317 249.134 400.145 248.332 400.145 247.291C400.145 246.25 399.317 245.422 398.276 245.422C397.234 245.422 396.433 246.25 396.433 247.291ZM431.552 249V230.07H428.054L421.326 245.476L414.651 230.07H411.1V249H413.69V234.262L420.098 249H422.501L428.962 234.262V249H431.552ZM441.599 247.158C439.463 247.158 437.594 245.556 437.594 242.565C437.594 239.602 439.463 238 441.599 238C443.735 238 445.604 239.602 445.604 242.565C445.604 245.556 443.735 247.158 441.599 247.158ZM441.599 235.757C437.754 235.757 435.031 238.667 435.031 242.565C435.031 246.49 437.754 249.401 441.599 249.401C445.444 249.401 448.167 246.49 448.167 242.565C448.167 238.667 445.444 235.757 441.599 235.757ZM458.507 236.024C458.373 235.997 458.026 235.944 457.679 235.944C456.371 235.944 454.769 236.424 453.834 238.4V236.157H451.378V249H453.888V242.565C453.888 239.735 455.303 238.614 457.412 238.614C457.759 238.614 458.133 238.64 458.507 238.694V236.024ZM462.68 241.257C462.787 239.602 464.069 237.973 466.178 237.973C468.447 237.973 469.649 239.415 469.702 241.257H462.68ZM470.076 244.594C469.596 246.036 468.554 247.184 466.472 247.184C464.309 247.184 462.654 245.582 462.6 243.286H472.266C472.292 243.126 472.319 242.806 472.319 242.485C472.319 238.48 470.103 235.757 466.151 235.757C462.921 235.757 460.01 238.507 460.01 242.539C460.01 246.891 463.027 249.401 466.472 249.401C469.462 249.401 471.518 247.612 472.239 245.342L470.076 244.594ZM484.681 249V236.157H482.198V249H484.681ZM481.637 231.298C481.637 232.286 482.438 233.087 483.426 233.087C484.441 233.087 485.242 232.286 485.242 231.298C485.242 230.283 484.441 229.482 483.426 229.482C482.438 229.482 481.637 230.283 481.637 231.298ZM491.434 249V241.257C491.434 239.335 492.636 238 494.424 238C496.347 238 497.148 239.281 497.148 240.937V249H499.658V241.23C499.658 239.388 500.859 238 502.621 238C504.517 238 505.345 239.254 505.345 240.937V249H507.828V240.67C507.828 237.305 505.638 235.783 503.396 235.783C501.767 235.783 500.112 236.371 499.097 238.213C498.403 236.558 496.854 235.783 495.252 235.783C493.757 235.783 492.155 236.451 491.354 237.866V236.157H488.951V249H491.434ZM514.327 254.073V247.264C515.021 248.413 516.517 249.347 518.492 249.347C522.257 249.347 524.473 246.383 524.473 242.565C524.473 238.827 522.417 235.864 518.573 235.864C516.49 235.864 514.968 236.878 514.274 238.16V236.157H511.844V254.073H514.327ZM521.91 242.565C521.91 245.209 520.442 247.104 518.119 247.104C515.822 247.104 514.301 245.209 514.301 242.565C514.301 240.002 515.822 238.08 518.119 238.08C520.468 238.08 521.91 240.002 521.91 242.565ZM533.171 247.158C531.035 247.158 529.166 245.556 529.166 242.565C529.166 239.602 531.035 238 533.171 238C535.307 238 537.176 239.602 537.176 242.565C537.176 245.556 535.307 247.158 533.171 247.158ZM533.171 235.757C529.327 235.757 526.603 238.667 526.603 242.565C526.603 246.49 529.327 249.401 533.171 249.401C537.016 249.401 539.74 246.49 539.74 242.565C539.74 238.667 537.016 235.757 533.171 235.757ZM550.08 236.024C549.946 235.997 549.599 235.944 549.252 235.944C547.944 235.944 546.342 236.424 545.407 238.4V236.157H542.951V249H545.46V242.565C545.46 239.735 546.876 238.614 548.985 238.614C549.332 238.614 549.706 238.64 550.08 238.694V236.024ZM556.797 232.099H554.501V234.181C554.501 235.303 553.913 236.157 552.525 236.157H551.831V238.427H554.287V245.476C554.287 247.798 555.675 249.134 557.865 249.134C558.719 249.134 559.36 248.973 559.574 248.893V246.757C559.36 246.811 558.906 246.864 558.586 246.864C557.277 246.864 556.797 246.277 556.797 245.102V238.427H559.574V236.157H556.797V232.099ZM562.123 245.556C562.123 247.585 563.805 249.401 566.421 249.401C568.717 249.401 569.999 248.172 570.56 247.264C570.56 248.199 570.64 248.68 570.693 249H573.15C573.096 248.68 572.989 248.012 572.989 246.891V240.456C572.989 237.946 571.494 235.757 567.649 235.757C564.873 235.757 562.657 237.466 562.39 239.922L564.793 240.483C564.953 238.987 565.941 237.893 567.703 237.893C569.652 237.893 570.48 238.934 570.48 240.189C570.48 240.643 570.266 241.043 569.492 241.15L566.021 241.657C563.805 241.978 562.123 243.259 562.123 245.556ZM566.768 247.291C565.487 247.291 564.686 246.383 564.686 245.422C564.686 244.274 565.487 243.66 566.555 243.5L570.48 242.912V243.5C570.48 246.303 568.824 247.291 566.768 247.291ZM579.409 241.577C579.409 239.628 580.424 238.053 582.4 238.053C584.642 238.053 585.39 239.495 585.39 241.284V249H587.9V240.856C587.9 238 586.378 235.783 583.307 235.783C581.812 235.783 580.29 236.398 579.356 238V236.157H576.899V249H579.409V241.577ZM595.256 232.099H592.96V234.181C592.96 235.303 592.373 236.157 590.984 236.157H590.29V238.427H592.746V245.476C592.746 247.798 594.135 249.134 596.324 249.134C597.179 249.134 597.819 248.973 598.033 248.893V246.757C597.819 246.811 597.366 246.864 597.045 246.864C595.737 246.864 595.256 246.277 595.256 245.102V238.427H598.033V236.157H595.256V232.099ZM603.893 249V229.669H601.383V249H603.893ZM611.366 254.367L619.723 236.157H617.027L613.182 245.022L609.177 236.157H606.293L611.82 247.585L608.616 254.367H611.366ZM618.925 247.291C618.925 248.439 619.726 249.107 620.714 249.107C621.007 249.107 621.221 249.027 621.301 248.973C621.274 250.255 620.393 251.563 619.085 251.857V253.245C620.74 253.032 623.037 251.563 623.037 248.039C623.037 246.357 622.022 245.502 620.874 245.502C619.752 245.502 618.925 246.33 618.925 247.291ZM168.257 285.048L163.397 270.07H160.647L155.895 284.888L151.73 270.07H149.033L154.506 289H157.123L162.009 273.647L166.949 289H169.645L175.039 270.07H172.342L168.257 285.048ZM182.134 287.158C179.998 287.158 178.129 285.556 178.129 282.565C178.129 279.602 179.998 278 182.134 278C184.27 278 186.139 279.602 186.139 282.565C186.139 285.556 184.27 287.158 182.134 287.158ZM182.134 275.757C178.289 275.757 175.566 278.667 175.566 282.565C175.566 286.49 178.289 289.401 182.134 289.401C185.979 289.401 188.702 286.49 188.702 282.565C188.702 278.667 185.979 275.757 182.134 275.757ZM197.414 287.158C195.278 287.158 193.409 285.556 193.409 282.565C193.409 279.602 195.278 278 197.414 278C199.55 278 201.419 279.602 201.419 282.565C201.419 285.556 199.55 287.158 197.414 287.158ZM197.414 275.757C193.569 275.757 190.845 278.667 190.845 282.565C190.845 286.49 193.569 289.401 197.414 289.401C201.258 289.401 203.982 286.49 203.982 282.565C203.982 278.667 201.258 275.757 197.414 275.757ZM215.657 289.401C220.009 289.401 222.999 286.864 224.014 283.313L221.691 282.458C220.917 285.048 218.888 286.997 215.657 286.997C212.213 286.997 208.928 284.461 208.928 279.521C208.928 274.582 212.213 272.072 215.657 272.072C218.754 272.072 220.837 273.674 221.558 276.531L223.987 275.677C223.026 272.019 219.982 269.669 215.657 269.669C210.958 269.669 206.258 273.194 206.258 279.521C206.258 285.849 210.771 289.401 215.657 289.401ZM232.197 287.158C230.061 287.158 228.192 285.556 228.192 282.565C228.192 279.602 230.061 278 232.197 278C234.333 278 236.202 279.602 236.202 282.565C236.202 285.556 234.333 287.158 232.197 287.158ZM232.197 275.757C228.352 275.757 225.628 278.667 225.628 282.565C225.628 286.49 228.352 289.401 232.197 289.401C236.041 289.401 238.765 286.49 238.765 282.565C238.765 278.667 236.041 275.757 232.197 275.757ZM244.459 289V281.257C244.459 279.335 245.661 278 247.449 278C249.372 278 250.173 279.281 250.173 280.937V289H252.683V281.23C252.683 279.388 253.884 278 255.646 278C257.542 278 258.37 279.254 258.37 280.937V289H260.853V280.67C260.853 277.305 258.663 275.783 256.421 275.783C254.792 275.783 253.137 276.371 252.122 278.213C251.428 276.558 249.879 275.783 248.277 275.783C246.782 275.783 245.18 276.451 244.379 277.866V276.157H241.976V289H244.459ZM267.352 289V281.257C267.352 279.335 268.554 278 270.343 278C272.265 278 273.066 279.281 273.066 280.937V289H275.576V281.23C275.576 279.388 276.777 278 278.54 278C280.435 278 281.263 279.254 281.263 280.937V289H283.746V280.67C283.746 277.305 281.557 275.783 279.314 275.783C277.685 275.783 276.03 276.371 275.015 278.213C274.321 276.558 272.772 275.783 271.17 275.783C269.675 275.783 268.073 276.451 267.272 277.866V276.157H264.869V289H267.352ZM289.391 281.257C289.498 279.602 290.779 277.973 292.889 277.973C295.158 277.973 296.36 279.415 296.413 281.257H289.391ZM296.787 284.594C296.306 286.036 295.265 287.184 293.182 287.184C291.02 287.184 289.364 285.582 289.311 283.286H298.976C299.003 283.126 299.03 282.806 299.03 282.485C299.03 278.48 296.814 275.757 292.862 275.757C289.631 275.757 286.721 278.507 286.721 282.539C286.721 286.891 289.738 289.401 293.182 289.401C296.173 289.401 298.229 287.612 298.95 285.342L296.787 284.594ZM309.362 276.024C309.229 275.997 308.882 275.944 308.535 275.944C307.226 275.944 305.624 276.424 304.69 278.4V276.157H302.233V289H304.743V282.565C304.743 279.735 306.158 278.614 308.268 278.614C308.615 278.614 308.989 278.64 309.362 278.694V276.024ZM317.3 278.08C319.49 278.08 320.424 279.548 320.745 280.803L323.014 279.842C322.48 277.893 320.718 275.757 317.3 275.757C313.643 275.757 310.839 278.56 310.839 282.565C310.839 286.463 313.589 289.401 317.327 289.401C320.665 289.401 322.507 287.238 323.121 285.395L320.905 284.434C320.611 285.449 319.73 287.078 317.327 287.078C315.245 287.078 313.402 285.502 313.402 282.565C313.402 279.575 315.271 278.08 317.3 278.08ZM327.564 281.257C327.67 279.602 328.952 277.973 331.061 277.973C333.331 277.973 334.532 279.415 334.586 281.257H327.564ZM334.96 284.594C334.479 286.036 333.438 287.184 331.355 287.184C329.192 287.184 327.537 285.582 327.484 283.286H337.149C337.176 283.126 337.202 282.806 337.202 282.485C337.202 278.48 334.986 275.757 331.035 275.757C327.804 275.757 324.894 278.507 324.894 282.539C324.894 286.891 327.911 289.401 331.355 289.401C334.345 289.401 336.401 287.612 337.122 285.342L334.96 284.594ZM348.576 282.539C348.576 279.895 350.072 278.026 352.368 278.026C354.664 278.026 356.052 279.842 356.052 282.485C356.052 285.128 354.637 287.131 352.341 287.131C349.938 287.131 348.576 285.182 348.576 282.539ZM356.079 287.264C356.079 288.039 356.159 288.706 356.213 289H358.642C358.616 288.786 358.509 287.852 358.509 286.624V269.669H356.026V277.973C355.598 276.932 354.37 275.81 352.101 275.81C348.47 275.81 346.013 278.907 346.013 282.539C346.013 286.357 348.336 289.347 352.101 289.347C354.103 289.347 355.465 288.279 356.079 287.051V287.264ZM368.278 287.158C366.142 287.158 364.273 285.556 364.273 282.565C364.273 279.602 366.142 278 368.278 278C370.414 278 372.283 279.602 372.283 282.565C372.283 285.556 370.414 287.158 368.278 287.158ZM368.278 275.757C364.433 275.757 361.71 278.667 361.71 282.565C361.71 286.49 364.433 289.401 368.278 289.401C372.123 289.401 374.846 286.49 374.846 282.565C374.846 278.667 372.123 275.757 368.278 275.757ZM379.686 281.257C379.793 279.602 381.074 277.973 383.184 277.973C385.453 277.973 386.655 279.415 386.708 281.257H379.686ZM387.082 284.594C386.601 286.036 385.56 287.184 383.477 287.184C381.315 287.184 379.659 285.582 379.606 283.286H389.271C389.298 283.126 389.325 282.806 389.325 282.485C389.325 278.48 387.109 275.757 383.157 275.757C379.926 275.757 377.016 278.507 377.016 282.539C377.016 286.891 380.033 289.401 383.477 289.401C386.468 289.401 388.524 287.612 389.245 285.342L387.082 284.594ZM391.327 285.662C391.541 287.131 393.036 289.401 396.56 289.401C399.738 289.401 401.259 287.238 401.259 285.422C401.259 283.526 400.031 282.111 397.708 281.604L395.626 281.15C394.638 280.937 394.157 280.376 394.157 279.602C394.157 278.72 395.012 277.893 396.293 277.893C398.322 277.893 398.856 279.361 398.963 280.029L401.179 279.201C400.912 278.053 399.818 275.757 396.293 275.757C393.783 275.757 391.728 277.626 391.728 279.815C391.728 281.631 392.929 282.992 394.932 283.42L397.121 283.9C398.189 284.141 398.776 284.755 398.776 285.556C398.776 286.463 398.002 287.264 396.587 287.264C394.771 287.264 393.757 286.196 393.597 284.861L391.327 285.662ZM407.111 281.577C407.111 279.628 408.125 278.053 410.101 278.053C412.344 278.053 413.091 279.495 413.091 281.284V289H415.601V280.856C415.601 278 414.079 275.783 411.009 275.783C409.514 275.783 407.992 276.398 407.057 278V276.157H404.601V289H407.111V281.577ZM418.526 273.007C418.526 273.14 418.552 273.38 418.579 273.514L419.674 278.507H420.581L421.703 273.487C421.73 273.354 421.756 273.167 421.756 273.007C421.756 272.045 421.089 271.378 420.154 271.378C419.193 271.378 418.526 272.045 418.526 273.007ZM428.329 272.099H426.033V274.181C426.033 275.303 425.445 276.157 424.057 276.157H423.363V278.427H425.819V285.476C425.819 287.798 427.208 289.134 429.397 289.134C430.251 289.134 430.892 288.973 431.106 288.893V286.757C430.892 286.811 430.438 286.864 430.118 286.864C428.81 286.864 428.329 286.277 428.329 285.102V278.427H431.106V276.157H428.329V272.099ZM446.524 278.08C448.714 278.08 449.648 279.548 449.969 280.803L452.238 279.842C451.704 277.893 449.942 275.757 446.524 275.757C442.866 275.757 440.063 278.56 440.063 282.565C440.063 286.463 442.813 289.401 446.551 289.401C449.888 289.401 451.731 287.238 452.345 285.395L450.129 284.434C449.835 285.449 448.954 287.078 446.551 287.078C444.468 287.078 442.626 285.502 442.626 282.565C442.626 279.575 444.495 278.08 446.524 278.08ZM457.799 281.444C457.852 279.548 458.867 278.053 460.789 278.053C463.032 278.053 463.78 279.495 463.78 281.284V289H466.29V280.856C466.29 278 464.768 275.783 461.697 275.783C460.229 275.783 458.733 276.291 457.799 277.652V269.669H455.289V289H457.799V281.444ZM469.481 285.556C469.481 287.585 471.163 289.401 473.78 289.401C476.076 289.401 477.357 288.172 477.918 287.264C477.918 288.199 477.998 288.68 478.052 289H480.508C480.455 288.68 480.348 288.012 480.348 286.891V280.456C480.348 277.946 478.853 275.757 475.008 275.757C472.231 275.757 470.015 277.466 469.748 279.922L472.151 280.483C472.311 278.987 473.299 277.893 475.061 277.893C477.01 277.893 477.838 278.934 477.838 280.189C477.838 280.643 477.624 281.043 476.85 281.15L473.379 281.657C471.163 281.978 469.481 283.259 469.481 285.556ZM474.127 287.291C472.845 287.291 472.044 286.383 472.044 285.422C472.044 284.274 472.845 283.66 473.913 283.5L477.838 282.912V283.5C477.838 286.303 476.183 287.291 474.127 287.291ZM491.387 276.024C491.253 275.997 490.906 275.944 490.559 275.944C489.251 275.944 487.649 276.424 486.714 278.4V276.157H484.258V289H486.767V282.565C486.767 279.735 488.183 278.614 490.292 278.614C490.639 278.614 491.013 278.64 491.387 278.694V276.024ZM492.997 289.694C493.317 292.444 495.72 294.474 498.924 294.474C503.757 294.474 505.359 291.296 505.359 288.039V276.157H502.876V277.946C502.235 276.665 500.9 275.917 498.924 275.917C495.4 275.917 493.023 278.694 493.023 282.165C493.023 285.796 495.506 288.386 498.924 288.386C500.846 288.386 502.235 287.451 502.849 286.277V288.119C502.849 290.896 501.621 292.284 498.924 292.284C496.975 292.284 495.613 290.922 495.426 289.134L492.997 289.694ZM499.298 286.277C497.028 286.277 495.587 284.675 495.587 282.165C495.587 279.682 497.082 278.053 499.298 278.053C501.461 278.053 502.956 279.682 502.956 282.165C502.956 284.648 501.461 286.277 499.298 286.277ZM510.996 281.257C511.103 279.602 512.384 277.973 514.493 277.973C516.763 277.973 517.964 279.415 518.018 281.257H510.996ZM518.392 284.594C517.911 286.036 516.87 287.184 514.787 287.184C512.624 287.184 510.969 285.582 510.916 283.286H520.581C520.608 283.126 520.634 282.806 520.634 282.485C520.634 278.48 518.418 275.757 514.467 275.757C511.236 275.757 508.326 278.507 508.326 282.539C508.326 286.891 511.343 289.401 514.787 289.401C517.778 289.401 519.833 287.612 520.554 285.342L518.392 284.594ZM533.717 294.367L542.074 276.157H539.378L535.533 285.022L531.528 276.157H528.644L534.171 287.585L530.967 294.367H533.717ZM549.468 287.158C547.332 287.158 545.463 285.556 545.463 282.565C545.463 279.602 547.332 278 549.468 278C551.604 278 553.473 279.602 553.473 282.565C553.473 285.556 551.604 287.158 549.468 287.158ZM549.468 275.757C545.623 275.757 542.9 278.667 542.9 282.565C542.9 286.49 545.623 289.401 549.468 289.401C553.313 289.401 556.036 286.49 556.036 282.565C556.036 278.667 553.313 275.757 549.468 275.757ZM567.581 287.451C567.581 287.985 567.634 288.706 567.687 289H570.09C570.037 288.546 569.957 287.638 569.957 286.624V276.157H567.447V283.9C567.447 285.849 566.433 287.184 564.403 287.184C562.294 287.184 561.493 285.636 561.493 283.874V276.157H558.983V284.247C558.983 287.158 560.799 289.401 563.789 289.401C565.284 289.401 566.886 288.786 567.581 287.451ZM580.114 285.556C580.114 287.585 581.796 289.401 584.412 289.401C586.709 289.401 587.99 288.172 588.551 287.264C588.551 288.199 588.631 288.68 588.684 289H591.141C591.087 288.68 590.981 288.012 590.981 286.891V280.456C590.981 277.946 589.485 275.757 585.641 275.757C582.864 275.757 580.648 277.466 580.381 279.922L582.784 280.483C582.944 278.987 583.932 277.893 585.694 277.893C587.643 277.893 588.471 278.934 588.471 280.189C588.471 280.643 588.257 281.043 587.483 281.15L584.012 281.657C581.796 281.978 580.114 283.259 580.114 285.556ZM584.76 287.291C583.478 287.291 582.677 286.383 582.677 285.422C582.677 284.274 583.478 283.66 584.546 283.5L588.471 282.912V283.5C588.471 286.303 586.815 287.291 584.76 287.291ZM604.049 294.073V287.264C604.743 288.413 606.238 289.347 608.214 289.347C611.979 289.347 614.195 286.383 614.195 282.565C614.195 278.827 612.139 275.864 608.294 275.864C606.211 275.864 604.689 276.878 603.995 278.16V276.157H601.566V294.073H604.049ZM611.631 282.565C611.631 285.209 610.163 287.104 607.84 287.104C605.544 287.104 604.022 285.209 604.022 282.565C604.022 280.002 605.544 278.08 607.84 278.08C610.19 278.08 611.631 280.002 611.631 282.565ZM622.893 287.158C620.757 287.158 618.888 285.556 618.888 282.565C618.888 279.602 620.757 278 622.893 278C625.029 278 626.898 279.602 626.898 282.565C626.898 285.556 625.029 287.158 622.893 287.158ZM622.893 275.757C619.048 275.757 616.325 278.667 616.325 282.565C616.325 286.49 619.048 289.401 622.893 289.401C626.738 289.401 629.461 286.49 629.461 282.565C629.461 278.667 626.738 275.757 622.893 275.757ZM639.801 276.024C639.667 275.997 639.32 275.944 638.973 275.944C637.665 275.944 636.063 276.424 635.128 278.4V276.157H632.672V289H635.182V282.565C635.182 279.735 636.597 278.614 638.706 278.614C639.053 278.614 639.427 278.64 639.801 278.694V276.024ZM646.518 272.099H644.222V274.181C644.222 275.303 643.635 276.157 642.246 276.157H641.552V278.427H644.008V285.476C644.008 287.798 645.397 289.134 647.586 289.134C648.441 289.134 649.081 288.973 649.295 288.893V286.757C649.081 286.811 648.627 286.864 648.307 286.864C646.999 286.864 646.518 286.277 646.518 285.102V278.427H649.295V276.157H646.518V272.099ZM655.128 289V276.157H652.645V289H655.128ZM652.084 271.298C652.084 272.286 652.885 273.087 653.873 273.087C654.888 273.087 655.689 272.286 655.689 271.298C655.689 270.283 654.888 269.482 653.873 269.482C652.885 269.482 652.084 270.283 652.084 271.298ZM664.898 287.158C662.762 287.158 660.893 285.556 660.893 282.565C660.893 279.602 662.762 278 664.898 278C667.034 278 668.903 279.602 668.903 282.565C668.903 285.556 667.034 287.158 664.898 287.158ZM664.898 275.757C661.054 275.757 658.33 278.667 658.33 282.565C658.33 286.49 661.054 289.401 664.898 289.401C668.743 289.401 671.467 286.49 671.467 282.565C671.467 278.667 668.743 275.757 664.898 275.757ZM677.187 281.577C677.187 279.628 678.202 278.053 680.178 278.053C682.421 278.053 683.168 279.495 683.168 281.284V289H685.678V280.856C685.678 278 684.156 275.783 681.086 275.783C679.59 275.783 678.069 276.398 677.134 278V276.157H674.678V289H677.187V281.577ZM195.171 326.158C193.035 326.158 191.166 324.556 191.166 321.565C191.166 318.602 193.035 317 195.171 317C197.307 317 199.176 318.602 199.176 321.565C199.176 324.556 197.307 326.158 195.171 326.158ZM195.171 314.757C191.326 314.757 188.603 317.667 188.603 321.565C188.603 325.49 191.326 328.401 195.171 328.401C199.016 328.401 201.739 325.49 201.739 321.565C201.739 317.667 199.016 314.757 195.171 314.757ZM211.412 317.427V315.157H208.315V313.128C208.315 311.366 209.463 310.939 210.344 310.939C210.985 310.939 211.305 311.045 211.439 311.099V308.856C211.332 308.776 210.798 308.589 209.943 308.589C207.621 308.589 205.725 310.138 205.725 312.995V315.157H203.349V317.427H205.725V328H208.315V317.427H211.412ZM223.982 333.367L232.339 315.157H229.642L225.797 324.022L221.792 315.157H218.909L224.436 326.585L221.232 333.367H223.982ZM239.732 326.158C237.596 326.158 235.727 324.556 235.727 321.565C235.727 318.602 237.596 317 239.732 317C241.868 317 243.737 318.602 243.737 321.565C243.737 324.556 241.868 326.158 239.732 326.158ZM239.732 314.757C235.887 314.757 233.164 317.667 233.164 321.565C233.164 325.49 235.887 328.401 239.732 328.401C243.577 328.401 246.3 325.49 246.3 321.565C246.3 317.667 243.577 314.757 239.732 314.757ZM257.845 326.451C257.845 326.985 257.898 327.706 257.952 328H260.355C260.301 327.546 260.221 326.638 260.221 325.624V315.157H257.711V322.9C257.711 324.849 256.697 326.184 254.668 326.184C252.558 326.184 251.757 324.636 251.757 322.874V315.157H249.248V323.247C249.248 326.158 251.063 328.401 254.054 328.401C255.549 328.401 257.151 327.786 257.845 326.451ZM271.633 315.024C271.5 314.997 271.152 314.944 270.805 314.944C269.497 314.944 267.895 315.424 266.961 317.4V315.157H264.504V328H267.014V321.565C267.014 318.735 268.429 317.614 270.538 317.614C270.885 317.614 271.259 317.64 271.633 317.694V315.024ZM283.466 333.073V326.264C284.16 327.413 285.656 328.347 287.631 328.347C291.396 328.347 293.612 325.383 293.612 321.565C293.612 317.827 291.556 314.864 287.711 314.864C285.629 314.864 284.107 315.878 283.413 317.16V315.157H280.983V333.073H283.466ZM291.049 321.565C291.049 324.209 289.58 326.104 287.258 326.104C284.961 326.104 283.439 324.209 283.439 321.565C283.439 319.002 284.961 317.08 287.258 317.08C289.607 317.08 291.049 319.002 291.049 321.565ZM303.939 315.024C303.805 314.997 303.458 314.944 303.111 314.944C301.803 314.944 300.201 315.424 299.266 317.4V315.157H296.81V328H299.32V321.565C299.32 318.735 300.735 317.614 302.844 317.614C303.191 317.614 303.565 317.64 303.939 317.694V315.024ZM311.984 326.158C309.848 326.158 307.979 324.556 307.979 321.565C307.979 318.602 309.848 317 311.984 317C314.12 317 315.989 318.602 315.989 321.565C315.989 324.556 314.12 326.158 311.984 326.158ZM311.984 314.757C308.139 314.757 305.416 317.667 305.416 321.565C305.416 325.49 308.139 328.401 311.984 328.401C315.829 328.401 318.552 325.49 318.552 321.565C318.552 317.667 315.829 314.757 311.984 314.757ZM326.756 308.589C324.433 308.589 322.537 310.138 322.537 312.995V315.157H320.161V317.427H322.537V328H325.127V317.427H331.135V328H333.618V315.157H325.127V313.101C325.127 311.339 326.275 310.939 327.156 310.939C327.797 310.939 328.118 311.045 328.251 311.099V308.856C328.144 308.776 327.61 308.589 326.756 308.589ZM330.574 310.244C330.574 311.232 331.375 312.033 332.363 312.033C333.378 312.033 334.179 311.232 334.179 310.244C334.179 309.23 333.378 308.429 332.363 308.429C331.375 308.429 330.574 309.23 330.574 310.244ZM341.241 311.099H338.945V313.181C338.945 314.303 338.358 315.157 336.969 315.157H336.275V317.427H338.731V324.476C338.731 326.798 340.12 328.134 342.309 328.134C343.164 328.134 343.804 327.973 344.018 327.893V325.757C343.804 325.811 343.35 325.864 343.03 325.864C341.722 325.864 341.241 325.277 341.241 324.102V317.427H344.018V315.157H341.241V311.099ZM346.297 324.662C346.51 326.131 348.006 328.401 351.53 328.401C354.707 328.401 356.229 326.238 356.229 324.422C356.229 322.526 355.001 321.111 352.678 320.604L350.596 320.15C349.608 319.937 349.127 319.376 349.127 318.602C349.127 317.72 349.981 316.893 351.263 316.893C353.292 316.893 353.826 318.361 353.933 319.029L356.149 318.201C355.882 317.053 354.787 314.757 351.263 314.757C348.753 314.757 346.697 316.626 346.697 318.815C346.697 320.631 347.899 321.992 349.901 322.42L352.091 322.9C353.159 323.141 353.746 323.755 353.746 324.556C353.746 325.463 352.972 326.264 351.557 326.264C349.741 326.264 348.727 325.196 348.566 323.861L346.297 324.662ZM365.445 324.556C365.445 326.585 367.127 328.401 369.743 328.401C372.04 328.401 373.321 327.172 373.882 326.264C373.882 327.199 373.962 327.68 374.015 328H376.472C376.418 327.68 376.312 327.012 376.312 325.891V319.456C376.312 316.946 374.816 314.757 370.972 314.757C368.195 314.757 365.979 316.466 365.712 318.922L368.115 319.483C368.275 317.987 369.263 316.893 371.025 316.893C372.974 316.893 373.802 317.934 373.802 319.189C373.802 319.643 373.588 320.043 372.814 320.15L369.343 320.657C367.127 320.978 365.445 322.259 365.445 324.556ZM370.091 326.291C368.809 326.291 368.008 325.383 368.008 324.422C368.008 323.274 368.809 322.66 369.877 322.5L373.802 321.912V322.5C373.802 325.303 372.146 326.291 370.091 326.291ZM379.02 324.662C379.234 326.131 380.729 328.401 384.253 328.401C387.43 328.401 388.952 326.238 388.952 324.422C388.952 322.526 387.724 321.111 385.401 320.604L383.319 320.15C382.331 319.937 381.85 319.376 381.85 318.602C381.85 317.72 382.705 316.893 383.986 316.893C386.015 316.893 386.549 318.361 386.656 319.029L388.872 318.201C388.605 317.053 387.511 314.757 383.986 314.757C381.476 314.757 379.42 316.626 379.42 318.815C379.42 320.631 380.622 321.992 382.624 322.42L384.814 322.9C385.882 323.141 386.469 323.755 386.469 324.556C386.469 325.463 385.695 326.264 384.28 326.264C382.464 326.264 381.45 325.196 381.289 323.861L379.02 324.662ZM402.173 333.367L410.53 315.157H407.833L403.988 324.022L399.983 315.157H397.1L402.627 326.585L399.423 333.367H402.173ZM417.923 326.158C415.787 326.158 413.918 324.556 413.918 321.565C413.918 318.602 415.787 317 417.923 317C420.059 317 421.928 318.602 421.928 321.565C421.928 324.556 420.059 326.158 417.923 326.158ZM417.923 314.757C414.079 314.757 411.355 317.667 411.355 321.565C411.355 325.49 414.079 328.401 417.923 328.401C421.768 328.401 424.492 325.49 424.492 321.565C424.492 317.667 421.768 314.757 417.923 314.757ZM436.036 326.451C436.036 326.985 436.09 327.706 436.143 328H438.546C438.493 327.546 438.412 326.638 438.412 325.624V315.157H435.903V322.9C435.903 324.849 434.888 326.184 432.859 326.184C430.75 326.184 429.949 324.636 429.949 322.874V315.157H427.439V323.247C427.439 326.158 429.254 328.401 432.245 328.401C433.74 328.401 435.342 327.786 436.036 326.451ZM449.824 315.024C449.691 314.997 449.344 314.944 448.997 314.944C447.688 314.944 446.086 315.424 445.152 317.4V315.157H442.695V328H445.205V321.565C445.205 318.735 446.62 317.614 448.73 317.614C449.077 317.614 449.45 317.64 449.824 317.694V315.024ZM461.657 328V326.131C462.458 327.519 463.927 328.347 465.823 328.347C469.641 328.347 471.803 325.33 471.803 321.512C471.803 317.774 469.801 314.783 465.903 314.783C463.767 314.783 462.271 315.825 461.657 316.973V308.669H459.174V328H461.657ZM469.24 321.512C469.24 324.289 467.745 326.104 465.449 326.104C463.233 326.104 461.631 324.289 461.631 321.512C461.631 318.735 463.233 317 465.449 317C467.772 317 469.24 318.735 469.24 321.512ZM483.335 326.451C483.335 326.985 483.388 327.706 483.442 328H485.845C485.791 327.546 485.711 326.638 485.711 325.624V315.157H483.201V322.9C483.201 324.849 482.187 326.184 480.157 326.184C478.048 326.184 477.247 324.636 477.247 322.874V315.157H474.737V323.247C474.737 326.158 476.553 328.401 479.543 328.401C481.039 328.401 482.641 327.786 483.335 326.451ZM488.792 324.662C489.006 326.131 490.501 328.401 494.026 328.401C497.203 328.401 498.725 326.238 498.725 324.422C498.725 322.526 497.497 321.111 495.174 320.604L493.091 320.15C492.103 319.937 491.623 319.376 491.623 318.602C491.623 317.72 492.477 316.893 493.759 316.893C495.788 316.893 496.322 318.361 496.429 319.029L498.645 318.201C498.378 317.053 497.283 314.757 493.759 314.757C491.249 314.757 489.193 316.626 489.193 318.815C489.193 320.631 490.394 321.992 492.397 322.42L494.586 322.9C495.654 323.141 496.242 323.755 496.242 324.556C496.242 325.463 495.467 326.264 494.052 326.264C492.237 326.264 491.222 325.196 491.062 323.861L488.792 324.662ZM504.549 328V315.157H502.066V328H504.549ZM501.506 310.298C501.506 311.286 502.307 312.087 503.295 312.087C504.309 312.087 505.11 311.286 505.11 310.298C505.11 309.283 504.309 308.482 503.295 308.482C502.307 308.482 501.506 309.283 501.506 310.298ZM511.329 320.577C511.329 318.628 512.344 317.053 514.32 317.053C516.563 317.053 517.31 318.495 517.31 320.284V328H519.82V319.856C519.82 317 518.298 314.783 515.228 314.783C513.732 314.783 512.21 315.398 511.276 317V315.157H508.82V328H511.329V320.577ZM525.441 320.257C525.548 318.602 526.829 316.973 528.939 316.973C531.208 316.973 532.41 318.415 532.463 320.257H525.441ZM532.837 323.594C532.356 325.036 531.315 326.184 529.232 326.184C527.07 326.184 525.414 324.582 525.361 322.286H535.026C535.053 322.126 535.08 321.806 535.08 321.485C535.08 317.48 532.864 314.757 528.912 314.757C525.681 314.757 522.771 317.507 522.771 321.539C522.771 325.891 525.788 328.401 529.232 328.401C532.223 328.401 534.279 326.612 535 324.342L532.837 323.594ZM537.082 324.662C537.295 326.131 538.791 328.401 542.315 328.401C545.492 328.401 547.014 326.238 547.014 324.422C547.014 322.526 545.786 321.111 543.463 320.604L541.381 320.15C540.393 319.937 539.912 319.376 539.912 318.602C539.912 317.72 540.767 316.893 542.048 316.893C544.077 316.893 544.611 318.361 544.718 319.029L546.934 318.201C546.667 317.053 545.573 314.757 542.048 314.757C539.538 314.757 537.482 316.626 537.482 318.815C537.482 320.631 538.684 321.992 540.686 322.42L542.876 322.9C543.944 323.141 544.531 323.755 544.531 324.556C544.531 325.463 543.757 326.264 542.342 326.264C540.526 326.264 539.512 325.196 539.351 323.861L537.082 324.662ZM549.154 324.662C549.368 326.131 550.863 328.401 554.387 328.401C557.565 328.401 559.087 326.238 559.087 324.422C559.087 322.526 557.858 321.111 555.536 320.604L553.453 320.15C552.465 319.937 551.984 319.376 551.984 318.602C551.984 317.72 552.839 316.893 554.12 316.893C556.15 316.893 556.684 318.361 556.79 319.029L559.007 318.201C558.74 317.053 557.645 314.757 554.12 314.757C551.611 314.757 549.555 316.626 549.555 318.815C549.555 320.631 550.756 321.992 552.759 322.42L554.948 322.9C556.016 323.141 556.604 323.755 556.604 324.556C556.604 325.463 555.829 326.264 554.414 326.264C552.599 326.264 551.584 325.196 551.424 323.861L549.154 324.662ZM568.169 328.694C568.489 331.444 570.892 333.474 574.096 333.474C578.929 333.474 580.531 330.296 580.531 327.039V315.157H578.048V316.946C577.407 315.665 576.072 314.917 574.096 314.917C570.572 314.917 568.195 317.694 568.195 321.165C568.195 324.796 570.678 327.386 574.096 327.386C576.018 327.386 577.407 326.451 578.021 325.277V327.119C578.021 329.896 576.793 331.284 574.096 331.284C572.147 331.284 570.785 329.922 570.598 328.134L568.169 328.694ZM574.47 325.277C572.2 325.277 570.759 323.675 570.759 321.165C570.759 318.682 572.254 317.053 574.47 317.053C576.633 317.053 578.128 318.682 578.128 321.165C578.128 323.648 576.633 325.277 574.47 325.277ZM591.668 315.024C591.534 314.997 591.187 314.944 590.84 314.944C589.532 314.944 587.93 315.424 586.995 317.4V315.157H584.539V328H587.049V321.565C587.049 318.735 588.464 317.614 590.573 317.614C590.92 317.614 591.294 317.64 591.668 317.694V315.024ZM599.713 326.158C597.577 326.158 595.708 324.556 595.708 321.565C595.708 318.602 597.577 317 599.713 317C601.849 317 603.718 318.602 603.718 321.565C603.718 324.556 601.849 326.158 599.713 326.158ZM599.713 314.757C595.868 314.757 593.145 317.667 593.145 321.565C593.145 325.49 595.868 328.401 599.713 328.401C603.558 328.401 606.281 325.49 606.281 321.565C606.281 317.667 603.558 314.757 599.713 314.757ZM616.467 315.157L613.13 324.823L610.246 315.157H607.496L611.714 328H614.358L617.695 318.228L621.113 328H623.703L627.868 315.157H625.225L622.394 324.823L619.057 315.157H616.467ZM629.202 324.662C629.416 326.131 630.911 328.401 634.435 328.401C637.613 328.401 639.135 326.238 639.135 324.422C639.135 322.526 637.906 321.111 635.583 320.604L633.501 320.15C632.513 319.937 632.032 319.376 632.032 318.602C632.032 317.72 632.887 316.893 634.168 316.893C636.198 316.893 636.732 318.361 636.838 319.029L639.054 318.201C638.787 317.053 637.693 314.757 634.168 314.757C631.659 314.757 629.603 316.626 629.603 318.815C629.603 320.631 630.804 321.992 632.807 322.42L634.996 322.9C636.064 323.141 636.651 323.755 636.651 324.556C636.651 325.463 635.877 326.264 634.462 326.264C632.646 326.264 631.632 325.196 631.472 323.861L629.202 324.662ZM646.054 309.07H642.903L643.597 322.58H645.386L646.054 309.07ZM642.743 326.398C642.743 327.359 643.517 328.134 644.478 328.134C645.44 328.134 646.241 327.359 646.241 326.398C646.241 325.437 645.44 324.636 644.478 324.636C643.517 324.636 642.743 325.437 642.743 326.398Z" fill="#94A2B3"/>
<defs>
<filter id="filter0_d" x="26.1463" y="56.1463" width="783.707" height="468.707" filterUnits="userSpaceOnUse" color-interpolation-filters="sRGB">
<feFlood flood-opacity="0" result="BackgroundImageFix"/>
<feColorMatrix in="SourceAlpha" type="matrix" values="0 0 0 0 0 0 0 0 0 0 0 0 0 0 0 0 0 0 127 0"/>
<feOffset dy="18"/>
<feGaussianBlur stdDeviation="26.4269"/>
<feColorMatrix type="matrix" values="0 0 0 0 0.845 0 0 0 0 0.892895 0 0 0 0 0.975 0 0 0 0.5 0"/>
<feBlend mode="normal" in2="BackgroundImageFix" result="effect1_dropShadow"/>
<feBlend mode="normal" in="SourceGraphic" in2="effect1_dropShadow" result="shape"/>
</filter>
<filter id="filter1_d" x="0.146282" y="0.146282" width="835.707" height="496.707" filterUnits="userSpaceOnUse" color-interpolation-filters="sRGB">
<feFlood flood-opacity="0" result="BackgroundImageFix"/>
<feColorMatrix in="SourceAlpha" type="matrix" values="0 0 0 0 0 0 0 0 0 0 0 0 0 0 0 0 0 0 127 0"/>
<feOffset dy="18"/>
<feGaussianBlur stdDeviation="26.4269"/>
<feColorMatrix type="matrix" values="0 0 0 0 0.845 0 0 0 0 0.892895 0 0 0 0 0.975 0 0 0 0.5 0"/>
<feBlend mode="normal" in2="BackgroundImageFix" result="effect1_dropShadow"/>
<feBlend mode="normal" in="SourceGraphic" in2="effect1_dropShadow" result="shape"/>
</filter>
</defs>
</svg>
